<?xml version="1.0" encoding="UTF-8"?>
<!DOCTYPE svg PUBLIC "-//W3C//DTD SVG 1.1//EN" "http://www.w3.org/Graphics/SVG/1.1/DTD/svg11.dtd">
<svg xmlns="http://www.w3.org/2000/svg" version="1.1" width="512px" height="512px" style="shape-rendering:geometricPrecision; text-rendering:geometricPrecision; image-rendering:optimizeQuality; fill-rule:evenodd; clip-rule:evenodd" xmlns:xlink="http://www.w3.org/1999/xlink">
<g><path style="opacity:0.981" fill="#253137" d="M 90.5,15.5 C 135.126,12.0514 166.959,30.3847 186,70.5C 188.136,76.7086 189.802,83.042 191,89.5C 191.75,99.9372 192.417,110.271 193,120.5C 194.882,130.493 198.882,139.493 205,147.5C 212.698,154.864 220.031,162.53 227,170.5C 231.326,181.309 229.993,191.309 223,200.5C 213.305,210.252 203.139,219.418 192.5,228C 183.137,230.924 174.47,229.59 166.5,224C 161.3,219.135 156.467,213.968 152,208.5C 151.245,205.697 151.578,203.03 153,200.5C 166.5,187 180,173.5 193.5,160C 184.043,149.249 178.209,136.749 176,122.5C 175.012,112.149 174.345,101.815 174,91.5C 164.815,54.9806 141.481,34.9806 104,31.5C 68.3996,34.2921 45.0663,52.6254 34,86.5C 27.8455,121.723 40.0122,148.557 70.5,167C 75.6783,169.393 81.0116,171.393 86.5,173C 97.7851,174.217 109.118,174.884 120.5,175C 127.114,175.271 132.947,177.437 138,181.5C 140.563,188.929 138.063,193.263 130.5,194.5C 126.861,193.565 123.194,192.732 119.5,192C 74.736,195.879 42.236,178.046 22,138.5C 6.9096,95.3459 17.0763,59.5125 52.5,31C 64.1723,23.1705 76.8389,18.0038 90.5,15.5 Z M 204.5,172.5 C 210.927,175.018 213.427,179.685 212,186.5C 203.833,194.667 195.667,202.833 187.5,211C 184.97,212.422 182.303,212.755 179.5,212C 177.167,209.667 174.833,207.333 172.5,205C 183.369,194.298 194.035,183.465 204.5,172.5 Z"/></g>
<g><path style="opacity:0.976" fill="#263237" d="M 235.5,16.5 C 256.622,15.7193 277.622,16.886 298.5,20C 300.286,20.7845 301.786,21.9512 303,23.5C 305.516,31.466 302.683,35.7993 294.5,36.5C 275.262,33.6865 255.928,32.8532 236.5,34C 223.146,35.8944 209.812,37.5611 196.5,39C 190.393,34.442 190.06,29.442 195.5,24C 208.788,20.5103 222.122,18.0103 235.5,16.5 Z"/></g>
<g><path style="opacity:0.98" fill="#253137" d="M 375.5,16.5 C 386.936,16.0441 398.269,16.5441 409.5,18C 410.893,19.1711 411.727,20.6711 412,22.5C 413.188,28.5855 414.688,34.5855 416.5,40.5C 421.399,41.9491 426.065,43.9491 430.5,46.5C 435.838,43.8331 440.838,40.6664 445.5,37C 448.866,35.1211 452.2,35.1211 455.5,37C 462.698,43.8638 469.532,51.0305 476,58.5C 476.667,60.8333 476.667,63.1667 476,65.5C 472.697,70.9686 469.197,76.3019 465.5,81.5C 468.332,86.1637 470.332,91.1637 471.5,96.5C 478.615,97.4232 485.615,98.9232 492.5,101C 493.701,101.903 494.535,103.069 495,104.5C 495.667,115.5 495.667,126.5 495,137.5C 493.786,139.049 492.286,140.215 490.5,141C 484.5,142.333 478.5,143.667 472.5,145C 470.553,150.17 468.22,155.17 465.5,160C 469.125,165.415 472.625,170.915 476,176.5C 476.79,179.634 476.457,182.634 475,185.5C 468.469,192.365 461.636,198.865 454.5,205C 451.833,205.667 449.167,205.667 446.5,205C 441.074,201.871 435.907,198.371 431,194.5C 426.17,197.22 421.17,199.553 416,201.5C 414.667,207.5 413.333,213.5 412,219.5C 411.215,221.286 410.049,222.786 408.5,224C 402.913,225.094 397.246,225.594 391.5,225.5C 385.754,225.594 380.087,225.094 374.5,224C 372.951,222.786 371.785,221.286 371,219.5C 369.667,213.5 368.333,207.5 367,201.5C 361.83,199.553 356.83,197.22 352,194.5C 347.093,198.371 341.926,201.871 336.5,205C 333.833,205.667 331.167,205.667 328.5,205C 321.364,198.865 314.531,192.365 308,185.5C 306.543,182.634 306.21,179.634 307,176.5C 310.375,170.915 313.875,165.415 317.5,160C 315.167,155 312.833,150 310.5,145C 304.5,143.667 298.5,142.333 292.5,141C 290.714,140.215 289.214,139.049 288,137.5C 287.333,126.5 287.333,115.5 288,104.5C 288.465,103.069 289.299,101.903 290.5,101C 297.407,99.0231 304.407,97.5231 311.5,96.5C 312.796,91.0723 314.796,85.9057 317.5,81C 313.629,76.0928 310.129,70.9261 307,65.5C 306.21,62.366 306.543,59.366 308,56.5C 314.864,49.3017 322.03,42.4684 329.5,36C 331.5,35.3333 333.5,35.3333 335.5,36C 341.167,39.5 346.833,43 352.5,46.5C 356.935,43.9491 361.601,41.9491 366.5,40.5C 368.396,33.5215 370.229,26.5215 372,19.5C 373.145,18.3636 374.312,17.3636 375.5,16.5 Z M 385.5,33.5 C 389.5,33.5 393.5,33.5 397.5,33.5C 398.343,39.5474 399.509,45.5474 401,51.5C 402.167,52.6667 403.333,53.8333 404.5,55C 413.859,57.2659 422.692,60.7659 431,65.5C 437.515,62.8197 443.682,59.4864 449.5,55.5C 453.191,57.6486 455.358,60.6486 456,64.5C 453.333,68.5 450.667,72.5 448,76.5C 447.333,79.5 447.333,82.5 448,85.5C 452.257,93.5113 456.09,101.678 459.5,110C 465.946,112.088 472.446,113.921 479,115.5C 479.499,119.152 479.665,122.818 479.5,126.5C 473.453,127.343 467.453,128.509 461.5,130C 459.333,130.833 457.833,132.333 457,134.5C 455.112,142.278 452.112,149.612 448,156.5C 447.333,159.167 447.333,161.833 448,164.5C 450.965,168.932 453.798,173.432 456.5,178C 454.549,181.98 451.549,184.314 447.5,185C 443.334,182.083 439.001,179.416 434.5,177C 432.167,176.333 429.833,176.333 427.5,177C 419.979,181.426 411.979,184.759 403.5,187C 402.299,187.903 401.465,189.069 401,190.5C 399.539,196.137 398.206,201.804 397,207.5C 393.333,208.833 389.667,208.833 386,207.5C 384.794,201.804 383.461,196.137 382,190.5C 381.535,189.069 380.701,187.903 379.5,187C 371.051,184.777 363.051,181.443 355.5,177C 353.167,176.333 350.833,176.333 348.5,177C 343.999,179.416 339.666,182.083 335.5,185C 331.451,184.314 328.451,181.98 326.5,178C 329.202,173.432 332.035,168.932 335,164.5C 335.667,161.833 335.667,159.167 335,156.5C 331.02,149.558 328.02,142.224 326,134.5C 325.167,132.333 323.667,130.833 321.5,130C 315.547,128.509 309.547,127.343 303.5,126.5C 303.335,122.818 303.501,119.152 304,115.5C 310.131,114.006 316.297,112.506 322.5,111C 324.049,109.786 325.215,108.286 326,106.5C 327.837,98.9847 330.837,91.9847 335,85.5C 335.667,82.5 335.667,79.5 335,76.5C 330.961,72.0812 328.294,67.0812 327,61.5C 329.016,59.316 331.183,57.316 333.5,55.5C 339.318,59.4864 345.485,62.8197 352,65.5C 360.308,60.7659 369.141,57.2659 378.5,55C 380.894,53.0478 382.394,50.5478 383,47.5C 384.156,42.878 384.99,38.2113 385.5,33.5 Z M 383.5,88.5 C 407.114,86.449 420.78,97.1157 424.5,120.5C 421.834,139.832 410.834,150.832 391.5,153.5C 372.166,150.832 361.166,139.832 358.5,120.5C 360.177,104.504 368.511,93.8372 383.5,88.5 Z"/></g>
<g><path style="opacity:0.98" fill="#253137" d="M 381.5,71.5 C 402.257,68.6888 419.091,75.3555 432,91.5C 444.023,110.288 444.357,129.288 433,148.5C 419.733,166.046 402.233,172.879 380.5,169C 351.435,159.719 338.935,139.886 343,109.5C 348.449,89.2173 361.282,76.5507 381.5,71.5 Z M 383.5,88.5 C 368.511,93.8372 360.177,104.504 358.5,120.5C 361.166,139.832 372.166,150.832 391.5,153.5C 410.834,150.832 421.834,139.832 424.5,120.5C 420.78,97.1157 407.114,86.449 383.5,88.5 Z"/></g>
<g><path style="opacity:0.981" fill="#253137" d="M 122.5,95.5 C 127.223,94.5531 131.056,95.8864 134,99.5C 140.48,121.47 151.813,140.47 168,156.5C 169.5,165.667 165.667,169.5 156.5,168C 141.929,154.083 130.429,137.917 122,119.5C 117.167,124.333 112.333,129.167 107.5,134C 96.8684,135.036 93.3684,130.536 97,120.5C 105.395,111.937 113.895,103.604 122.5,95.5 Z"/></g>
<g><path style="opacity:0.978" fill="#253137" d="M 28.5,192.5 C 34.7266,192.397 38.06,195.397 38.5,201.5C 32.6729,227.397 31.0062,253.564 33.5,280C 31.2913,289.181 26.1246,291.348 18,286.5C 13.7633,256.973 15.0966,227.639 22,198.5C 23.4361,195.558 25.6028,193.558 28.5,192.5 Z"/></g>
<g><path style="opacity:0.975" fill="#253137" d="M 480.5,208.5 C 484.516,207.9 488.016,208.9 491,211.5C 493.167,218.995 494.5,226.661 495,234.5C 495.848,252.527 495.515,270.527 494,288.5C 493.507,292.968 492.507,297.302 491,301.5C 486.333,306.833 481.667,306.833 477,301.5C 476.042,299.801 475.542,297.967 475.5,296C 479.5,269.668 479.5,243.335 475.5,217C 475.525,213.105 477.192,210.272 480.5,208.5 Z"/></g>
<g><path style="opacity:0.98" fill="#253137" d="M 106.5,288.5 C 152.249,285.123 187.082,302.79 211,341.5C 233.063,387.941 226.896,430.107 192.5,468C 158.736,497.485 120.736,504.485 78.5,489C 32.39,466.303 11.5567,429.136 16,377.5C 18.8329,357.675 26.6662,340.175 39.5,325C 36.628,322.463 34.128,319.63 32,316.5C 30.1667,307 34,303.167 43.5,305C 72,332.167 99.8333,360 127,388.5C 128.808,399.03 124.641,402.863 114.5,400C 109,394.5 103.5,389 98,383.5C 93.7092,402.032 100.876,413.032 119.5,416.5C 136.454,413.592 143.954,403.592 142,386.5C 140.419,380.914 137.252,376.414 132.5,373C 122.997,369.922 120.997,364.255 126.5,356C 129.03,354.578 131.697,354.245 134.5,355C 154.33,364.153 162.497,379.653 159,401.5C 151.3,425.773 134.8,435.94 109.5,432C 86.2965,424.11 76.4632,407.943 80,383.5C 80.6769,378.795 82.5103,374.628 85.5,371C 82,367.5 78.5,364 75,360.5C 64.1928,375.743 61.5262,392.41 67,410.5C 80.0579,440.114 102.558,451.947 134.5,446C 156.058,439.109 169.225,424.609 174,402.5C 176.681,368.351 161.515,346.851 128.5,338C 119.155,337.705 109.822,337.705 100.5,338C 98.6667,337.5 97.5,336.333 97,334.5C 94.8696,327.923 97.0362,323.756 103.5,322C 142.135,316.065 169.969,330.565 187,365.5C 198.956,404.644 187.789,435.144 153.5,457C 125.792,469.744 99.4582,467.41 74.5,450C 44.7891,422.099 39.2891,389.932 58,353.5C 59.1411,351.391 60.6411,349.558 62.5,348C 59,344.5 55.5,341 52,337.5C 31.4699,363.836 26.8032,392.836 38,424.5C 58.2391,467.042 91.7391,484.875 138.5,478C 175.828,467.671 198.328,443.504 206,405.5C 209.638,362.26 192.138,331.093 153.5,312C 130.022,303.062 106.689,303.395 83.5,313C 74.3394,313.829 70.8394,309.662 73,300.5C 77.1894,296.822 82.0227,294.322 87.5,293C 93.9293,291.308 100.263,289.808 106.5,288.5 Z"/></g>
<g><path style="opacity:0.978" fill="#253137" d="M 378.5,288.5 C 403.773,286.185 427.107,291.685 448.5,305C 453.756,309.924 453.756,314.924 448.5,320C 445.833,320.667 443.167,320.667 440.5,320C 410.069,301.829 379.069,300.829 347.5,317C 308.582,343.415 296.082,379.248 310,424.5C 330.239,467.042 363.739,484.875 410.5,478C 452.925,465.503 475.925,437.17 479.5,393C 478.238,385.584 477.738,378.084 478,370.5C 482.643,365.547 487.643,365.213 493,369.5C 501.633,415.624 487.133,452.458 449.5,480C 410.833,503.333 372.167,503.333 333.5,480C 294.243,450.579 280.076,411.746 291,363.5C 305.328,320.994 334.494,295.994 378.5,288.5 Z"/></g>
<g><path style="opacity:0.983" fill="#243036" d="M 473.5,324.5 C 480.144,323.649 484.144,326.482 485.5,333C 485.007,335.819 483.84,338.319 482,340.5C 453.472,369.362 424.639,397.862 395.5,426C 391.467,427.04 387.801,426.374 384.5,424C 369.637,409.471 355.137,394.638 341,379.5C 339.964,368.868 344.464,365.368 354.5,369C 366.681,381.348 379.014,393.514 391.5,405.5C 418.881,378.452 446.214,351.452 473.5,324.5 Z"/></g>
<g><path style="opacity:0.977" fill="#263237" d="M 213.5,476.5 C 240.668,481.729 267.835,481.729 295,476.5C 302.45,477.714 305.117,482.048 303,489.5C 301.066,492.688 298.232,494.188 294.5,494C 266.774,498.758 239.107,498.424 211.5,493C 207.723,490.045 206.557,486.212 208,481.5C 209.107,478.887 210.94,477.22 213.5,476.5 Z"/></g>
</svg>
