<svg width="99" height="8" viewBox="0 0 99 8" fill="none" xmlns="http://www.w3.org/2000/svg">
<path d="M43.0507 7C47.0356 6.66526 51.0213 6.40728 55.0164 6.26059C57.2582 6.17837 59.4998 6.1313 61.7428 6.09019C64.7742 6.03461 67.9678 6.06467 70.9327 5.31334C71.0891 5.27375 70.6145 5.25967 70.4549 5.23594C70.1217 5.18632 69.7841 5.16222 69.45 5.1206C68.6184 5.01693 67.7911 4.94421 66.9563 4.87366C64.0879 4.63104 61.2109 4.47039 58.3328 4.44489C49.9319 4.37027 41.7018 4.3831 33.3244 5.17757C30.6357 5.43263 27.9561 5.73551 25.2713 6.03257C24.6542 6.10083 22.7893 6.05693 22.3599 6.64902C22.1914 6.88136 22.9339 6.64698 23.2208 6.63848C23.7233 6.62364 24.2214 6.63037 24.7236 6.64864C26.3234 6.70676 27.925 6.67617 29.5239 6.5843C34.2349 6.31364 38.9648 6.18333 43.6824 6.00834C52.8464 5.66852 61.9965 4.85335 71.15 4.33791C73.8898 4.18374 76.6209 3.88567 79.3607 3.74837C80.8979 3.67135 82.9991 3.84811 84.4031 3.08739C84.6933 2.93017 83.7484 3.00249 83.4213 2.95871C82.8405 2.88106 82.27 2.81039 81.6852 2.76394C79.7454 2.61002 77.7803 2.65811 75.8349 2.55533C70.2071 2.25789 64.5699 2.13315 58.9316 2.12973C47.1773 2.12288 35.2319 2.1999 23.5175 3.221C18.9175 3.62198 13.4989 3.39879 9.09346 4.96426C8.75682 5.08392 9.8085 4.9772 10.1644 5.00728C10.8528 5.06552 11.5525 5.01591 12.2432 5.06134C14.3954 5.20308 16.5432 5.04814 18.6963 4.99142C25.1203 4.82176 31.5572 4.79689 37.99 4.65959C45.089 4.50796 52.1563 3.76868 59.2449 3.41439C67.3256 3.01049 75.4037 2.77282 83.4811 2.31804C87.2842 2.10384 91.0876 2.04015 94.8953 2.0489C95.437 2.05017 97.9917 2.36448 98.3601 1.93672C98.6095 1.64741 97.607 1.80919 97.2296 1.75057C96.3767 1.61809 95.521 1.54705 94.6627 1.45987C92.358 1.22613 90.0351 1.05177 87.7183 1.0203C80.6633 0.924622 73.6011 1.20582 66.5474 1.06915C58.757 0.918278 50.8969 1.36101 43.1034 1.55033C36.0909 1.72075 29.0472 1.34476 22.0292 1.39501C15.06 1.44501 7.96527 2.60448 1 2.08561" stroke="url(#paint0_linear_8008_24079)" stroke-width="1.04433" stroke-miterlimit="1.5" stroke-linecap="round" stroke-linejoin="round"/>
<defs>
<linearGradient id="paint0_linear_8008_24079" x1="63" y1="-15" x2="54.5" y2="8" gradientUnits="userSpaceOnUse">
<stop stop-color="#8871FE"/>
<stop offset="1" stop-color="#7B59FF"/>
</linearGradient>
</defs>
</svg>
