<svg width="32" height="33" viewBox="0 0 32 33" fill="none" xmlns="http://www.w3.org/2000/svg">
<g clip-path="url(#clip0_8007_23948)">
<path opacity="0.997" fill-rule="evenodd" clip-rule="evenodd" d="M14.2812 0.46875C14.4479 0.46875 14.6146 0.46875 14.7812 0.46875C14.9105 0.523427 15.0355 0.596344 15.1562 0.6875C15.8792 1.45195 16.598 2.21237 17.3125 2.96875C18.1522 2.40012 18.9751 1.80637 19.7812 1.1875C20.369 0.905086 20.8586 1.01967 21.25 1.53125C21.5799 2.37864 21.8924 3.2328 22.1875 4.09375C22.2364 4.26353 22.3198 4.40936 22.4375 4.53125C23.3424 4.30762 24.2487 4.08887 25.1562 3.875C25.9934 3.69948 26.4726 4.03281 26.5938 4.875C26.5164 5.90371 26.4747 6.93494 26.4688 7.96875C27.6048 8.11163 28.7298 8.30956 29.8438 8.5625C30.2618 8.90519 30.3972 9.33225 30.25 9.84375C29.8314 10.733 29.4044 11.6184 28.9688 12.5C29.7894 13.0878 30.6436 13.6295 31.5312 14.125C31.7159 14.2776 31.8617 14.4547 31.9688 14.6562C31.9688 14.8854 31.9688 15.1146 31.9688 15.3438C31.6941 15.7127 31.3816 16.0564 31.0312 16.375C30.5104 16.8542 29.9896 17.3333 29.4688 17.8125C30.091 18.6507 30.7056 19.4944 31.3125 20.3438C31.5087 20.8588 31.4149 21.3067 31.0312 21.6875C29.9747 22.1065 28.9226 22.5336 27.875 22.9688C28.0621 23.8842 28.2704 24.8008 28.5 25.7188C28.6629 26.6072 28.2983 27.0864 27.4062 27.1562C26.4276 27.1002 25.4484 27.0585 24.4688 27.0312C24.3194 28.0316 24.1631 29.0316 24 30.0312C23.7947 30.6529 23.3676 30.9134 22.7188 30.8125C21.7732 30.3827 20.8357 29.9347 19.9062 29.4688C19.3626 30.3146 18.8314 31.1688 18.3125 32.0312C18.1832 32.2129 18.0269 32.3587 17.8438 32.4688C17.5729 32.4688 17.3021 32.4688 17.0312 32.4688C16.1805 31.6908 15.3784 30.8574 14.625 29.9688C13.7361 30.6285 12.8298 31.2639 11.9062 31.875C11.3437 32.0154 10.9166 31.8383 10.625 31.3438C10.2831 30.3806 9.92894 29.4222 9.5625 28.4688C8.42156 28.7636 7.26531 28.9616 6.09375 29.0625C5.79167 28.9271 5.57292 28.7083 5.4375 28.4062C5.40969 27.2787 5.44094 26.1537 5.53125 25.0312C4.46782 24.8629 3.40532 24.6859 2.34375 24.5C1.80511 24.2665 1.58636 23.8602 1.6875 23.2812C2.10603 22.3504 2.53311 21.4233 2.96875 20.5C2.12714 19.9226 1.27297 19.3601 0.40625 18.8125C0.221652 18.6599 0.0758194 18.4828 -0.03125 18.2812C-0.03125 18.0729 -0.03125 17.8646 -0.03125 17.6562C0.0234271 17.527 0.0963437 17.402 0.1875 17.2812C0.947919 16.5625 1.70833 15.8438 2.46875 15.125C1.875 14.3229 1.28125 13.5208 0.6875 12.7188C0.339568 12.0622 0.474985 11.5309 1.09375 11.125C2.08076 10.7787 3.05993 10.4141 4.03125 10.0312C3.76171 8.99475 3.51171 7.95306 3.28125 6.90625C3.30291 6.43659 3.53208 6.11367 3.96875 5.9375C5.11551 5.92712 6.26131 5.95837 7.40625 6.03125C7.56787 4.94196 7.76575 3.85863 8 2.78125C8.29162 2.2867 8.71869 2.10962 9.28125 2.25C10.1998 2.65199 11.1061 3.07908 12 3.53125C12.5781 2.64594 13.1406 1.75011 13.6875 0.84375C13.8652 0.677333 14.0631 0.552333 14.2812 0.46875Z" fill="url(#paint0_linear_8007_23948)"/>
<path fill-rule="evenodd" clip-rule="evenodd" d="M22.9687 11.5314C24.1136 11.52 24.6449 12.0825 24.5625 13.2189C24.5171 13.372 24.4546 13.5179 24.375 13.6564C21.1545 16.8562 17.9148 20.0332 14.6562 23.1877C14.1103 23.5589 13.5686 23.5589 13.0312 23.1877C11.5172 21.6051 10.0693 19.9697 8.68746 18.2814C8.39202 17.2336 8.7774 16.6086 9.84371 16.4064C10.0829 16.4132 10.312 16.4653 10.5312 16.5627C10.7686 16.7375 10.9874 16.9354 11.1875 17.1564C12.0631 18.1673 12.9485 19.1673 13.8437 20.1564C16.7282 17.3865 19.6032 14.6053 22.4687 11.8127C22.6494 11.733 22.8161 11.6393 22.9687 11.5314Z" fill="#FDFEFE"/>
</g>
<defs>
<linearGradient id="paint0_linear_8007_23948" x1="14" y1="1" x2="16.2188" y2="23.5938" gradientUnits="userSpaceOnUse">
<stop stop-color="#8871FE"/>
<stop offset="0.667111" stop-color="#7B59FF"/>
</linearGradient>
<clipPath id="clip0_8007_23948">
<rect width="32" height="32" fill="white" transform="translate(0 0.5)"/>
</clipPath>
</defs>
</svg>
