<svg width="14" height="14" viewBox="0 0 14 14" fill="none" xmlns="http://www.w3.org/2000/svg">
<g clip-path="url(#clip0_8156_25597)">
<path opacity="0.997" fill-rule="evenodd" clip-rule="evenodd" d="M2.2832 -0.0136719C2.64779 -0.0136719 3.01238 -0.0136719 3.37695 -0.0136719C3.37695 0.350911 3.37695 0.715496 3.37695 1.08008C5.7832 1.08008 8.18945 1.08008 10.5957 1.08008C10.5957 0.715496 10.5957 0.350911 10.5957 -0.0136719C10.9603 -0.0136719 11.3249 -0.0136719 11.6895 -0.0136719C11.6895 0.350911 11.6895 0.715496 11.6895 1.08008C12.0086 1.07553 12.3276 1.08008 12.6465 1.09375C13.3624 1.26733 13.809 1.70938 13.9863 2.41992C13.9863 5.82879 13.9863 9.23762 13.9863 12.6465C13.804 13.3574 13.3574 13.804 12.6465 13.9863C8.87305 13.9863 5.09961 13.9863 1.32617 13.9863C0.615234 13.804 0.16862 13.3574 -0.0136719 12.6465C-0.0136719 9.23762 -0.0136719 5.82879 -0.0136719 2.41992C0.163678 1.70938 0.610293 1.26733 1.32617 1.09375C1.64505 1.08008 1.96406 1.07553 2.2832 1.08008C2.2832 0.715496 2.2832 0.350911 2.2832 -0.0136719ZM1.62695 2.17383C1.8457 2.17383 2.06445 2.17383 2.2832 2.17383C2.2832 2.53841 2.2832 2.903 2.2832 3.26758C2.64779 3.26758 3.01238 3.26758 3.37695 3.26758C3.37695 2.903 3.37695 2.53841 3.37695 2.17383C5.7832 2.17383 8.18945 2.17383 10.5957 2.17383C10.5957 2.53841 10.5957 2.903 10.5957 3.26758C10.9603 3.26758 11.3249 3.26758 11.6895 3.26758C11.6895 2.903 11.6895 2.53841 11.6895 2.17383C11.9643 2.16477 12.2377 2.17844 12.5098 2.21484C12.7294 2.31194 12.8524 2.48056 12.8789 2.7207C12.8926 3.15812 12.8971 3.59562 12.8926 4.0332C8.95508 4.0332 5.01758 4.0332 1.08008 4.0332C1.06871 3.53987 1.08238 3.04768 1.12109 2.55664C1.22427 2.33909 1.39289 2.21148 1.62695 2.17383ZM1.08008 5.12695C5.01758 5.12695 8.95508 5.12695 12.8926 5.12695C12.8971 7.53323 12.8926 9.93948 12.8789 12.3457C12.847 12.6693 12.6693 12.847 12.3457 12.8789C8.77278 12.8971 5.19988 12.8971 1.62695 12.8789C1.30339 12.847 1.12565 12.6693 1.09375 12.3457C1.08008 9.93948 1.07552 7.53323 1.08008 5.12695Z" fill="#101828"/>
<path fill-rule="evenodd" clip-rule="evenodd" d="M2.06445 6.27539C2.42904 6.27539 2.79363 6.27539 3.1582 6.27539C3.1582 6.63996 3.1582 7.00457 3.1582 7.36914C2.79363 7.36914 2.42904 7.36914 2.06445 7.36914C2.06445 7.00457 2.06445 6.63996 2.06445 6.27539Z" fill="#101828"/>
<path fill-rule="evenodd" clip-rule="evenodd" d="M4.25195 6.27539C4.61653 6.27539 4.98113 6.27539 5.3457 6.27539C5.3457 6.63996 5.3457 7.00457 5.3457 7.36914C4.98113 7.36914 4.61653 7.36914 4.25195 7.36914C4.25195 7.00457 4.25195 6.63996 4.25195 6.27539Z" fill="#101828"/>
<path fill-rule="evenodd" clip-rule="evenodd" d="M6.43945 6.27539C6.80403 6.27539 7.16863 6.27539 7.5332 6.27539C7.5332 6.63996 7.5332 7.00457 7.5332 7.36914C7.16863 7.36914 6.80403 7.36914 6.43945 7.36914C6.43945 7.00457 6.43945 6.63996 6.43945 6.27539Z" fill="#101828"/>
<path fill-rule="evenodd" clip-rule="evenodd" d="M8.62695 6.27539C8.99153 6.27539 9.35613 6.27539 9.7207 6.27539C9.7207 6.63996 9.7207 7.00457 9.7207 7.36914C9.35613 7.36914 8.99153 7.36914 8.62695 7.36914C8.62695 7.00457 8.62695 6.63996 8.62695 6.27539Z" fill="#101828"/>
<path fill-rule="evenodd" clip-rule="evenodd" d="M10.8145 6.27539C11.179 6.27539 11.5436 6.27539 11.9082 6.27539C11.9082 6.63996 11.9082 7.00457 11.9082 7.36914C11.5436 7.36914 11.179 7.36914 10.8145 7.36914C10.8145 7.00457 10.8145 6.63996 10.8145 6.27539Z" fill="#101828"/>
<path fill-rule="evenodd" clip-rule="evenodd" d="M2.06445 8.46289C2.42904 8.46289 2.79363 8.46289 3.1582 8.46289C3.1582 8.82746 3.1582 9.19207 3.1582 9.55664C2.79363 9.55664 2.42904 9.55664 2.06445 9.55664C2.06445 9.19207 2.06445 8.82746 2.06445 8.46289Z" fill="#101828"/>
<path fill-rule="evenodd" clip-rule="evenodd" d="M4.25195 8.46289C4.61653 8.46289 4.98113 8.46289 5.3457 8.46289C5.3457 8.82746 5.3457 9.19207 5.3457 9.55664C4.98113 9.55664 4.61653 9.55664 4.25195 9.55664C4.25195 9.19207 4.25195 8.82746 4.25195 8.46289Z" fill="#101828"/>
<path fill-rule="evenodd" clip-rule="evenodd" d="M6.43945 8.46289C6.80403 8.46289 7.16863 8.46289 7.5332 8.46289C7.5332 8.82746 7.5332 9.19207 7.5332 9.55664C7.16863 9.55664 6.80403 9.55664 6.43945 9.55664C6.43945 9.19207 6.43945 8.82746 6.43945 8.46289Z" fill="#101828"/>
<path fill-rule="evenodd" clip-rule="evenodd" d="M8.62695 8.46289C8.99153 8.46289 9.35613 8.46289 9.7207 8.46289C9.7207 8.82746 9.7207 9.19207 9.7207 9.55664C9.35613 9.55664 8.99153 9.55664 8.62695 9.55664C8.62695 9.19207 8.62695 8.82746 8.62695 8.46289Z" fill="#101828"/>
<path fill-rule="evenodd" clip-rule="evenodd" d="M10.8145 8.46289C11.179 8.46289 11.5436 8.46289 11.9082 8.46289C11.9082 8.82746 11.9082 9.19207 11.9082 9.55664C11.5436 9.55664 11.179 9.55664 10.8145 9.55664C10.8145 9.19207 10.8145 8.82746 10.8145 8.46289Z" fill="#101828"/>
<path fill-rule="evenodd" clip-rule="evenodd" d="M2.06445 10.6504C2.42904 10.6504 2.79363 10.6504 3.1582 10.6504C3.1582 11.015 3.1582 11.3796 3.1582 11.7441C2.79363 11.7441 2.42904 11.7441 2.06445 11.7441C2.06445 11.3796 2.06445 11.015 2.06445 10.6504Z" fill="#101828"/>
<path fill-rule="evenodd" clip-rule="evenodd" d="M4.25195 10.6504C4.61653 10.6504 4.98113 10.6504 5.3457 10.6504C5.3457 11.015 5.3457 11.3796 5.3457 11.7441C4.98113 11.7441 4.61653 11.7441 4.25195 11.7441C4.25195 11.3796 4.25195 11.015 4.25195 10.6504Z" fill="#101828"/>
<path fill-rule="evenodd" clip-rule="evenodd" d="M6.43945 10.6504C6.80403 10.6504 7.16863 10.6504 7.5332 10.6504C7.5332 11.015 7.5332 11.3796 7.5332 11.7441C7.16863 11.7441 6.80403 11.7441 6.43945 11.7441C6.43945 11.3796 6.43945 11.015 6.43945 10.6504Z" fill="#101828"/>
<path fill-rule="evenodd" clip-rule="evenodd" d="M8.62695 10.6504C8.99153 10.6504 9.35613 10.6504 9.7207 10.6504C9.7207 11.015 9.7207 11.3796 9.7207 11.7441C9.35613 11.7441 8.99153 11.7441 8.62695 11.7441C8.62695 11.3796 8.62695 11.015 8.62695 10.6504Z" fill="#101828"/>
</g>
<defs>
<clipPath id="clip0_8156_25597">
<rect width="14" height="14" fill="white"/>
</clipPath>
</defs>
</svg>
