<svg width="200" height="200" viewBox="0 0 200 200" fill="none" xmlns="http://www.w3.org/2000/svg">
<g clip-path="url(#clip0_8119_24977)">
<path opacity="0.997" fill-rule="evenodd" clip-rule="evenodd" d="M32.6172 -0.195312C37.8255 -0.195312 43.034 -0.195312 48.2422 -0.195312C48.2422 5.01301 48.2422 10.2214 48.2422 15.4297C82.6172 15.4297 116.992 15.4297 151.367 15.4297C151.367 10.2214 151.367 5.01301 151.367 -0.195312C156.575 -0.195312 161.784 -0.195312 166.992 -0.195312C166.992 5.01301 166.992 10.2214 166.992 15.4297C171.551 15.3646 176.109 15.4297 180.664 15.625C190.891 18.1046 197.271 24.4198 199.805 34.5703C199.805 83.2684 199.805 131.966 199.805 180.664C197.2 190.82 190.82 197.2 180.664 199.805C126.758 199.805 72.8516 199.805 18.9453 199.805C8.78906 197.2 2.40886 190.82 -0.195312 180.664C-0.195312 131.966 -0.195312 83.2684 -0.195312 34.5703C2.33826 24.4198 8.71848 18.1046 18.9453 15.625C23.5007 15.4297 28.058 15.3646 32.6172 15.4297C32.6172 10.2214 32.6172 5.01301 32.6172 -0.195312ZM23.2422 31.0547C26.3672 31.0547 29.4922 31.0547 32.6172 31.0547C32.6172 36.263 32.6172 41.4715 32.6172 46.6797C37.8255 46.6797 43.034 46.6797 48.2422 46.6797C48.2422 41.4715 48.2422 36.263 48.2422 31.0547C82.6172 31.0547 116.992 31.0547 151.367 31.0547C151.367 36.263 151.367 41.4715 151.367 46.6797C156.575 46.6797 161.784 46.6797 166.992 46.6797C166.992 41.4715 166.992 36.263 166.992 31.0547C170.918 30.9253 174.824 31.1206 178.711 31.6406C181.848 33.0277 183.606 35.4366 183.984 38.8672C184.18 45.116 184.245 51.366 184.18 57.6172C127.93 57.6172 71.6797 57.6172 15.4297 57.6172C15.2672 50.5695 15.4625 43.5383 16.0156 36.5234C17.4896 33.4155 19.8984 31.5926 23.2422 31.0547ZM15.4297 73.2422C71.6797 73.2422 127.93 73.2422 184.18 73.2422C184.245 107.618 184.18 141.993 183.984 176.367C183.529 180.989 180.989 183.529 176.367 183.984C125.325 184.245 74.284 184.245 23.2422 183.984C18.6198 183.529 16.0807 180.989 15.625 176.367C15.4297 141.993 15.3646 107.618 15.4297 73.2422Z" fill="#E4E7EC"/>
<path fill-rule="evenodd" clip-rule="evenodd" d="M29.4922 89.6484C34.7005 89.6484 39.909 89.6484 45.1172 89.6484C45.1172 94.8566 45.1172 100.065 45.1172 105.273C39.909 105.273 34.7005 105.273 29.4922 105.273C29.4922 100.065 29.4922 94.8566 29.4922 89.6484Z" fill="#E4E7EC"/>
<path fill-rule="evenodd" clip-rule="evenodd" d="M60.7422 89.6484C65.9504 89.6484 71.159 89.6484 76.3672 89.6484C76.3672 94.8566 76.3672 100.065 76.3672 105.273C71.159 105.273 65.9504 105.273 60.7422 105.273C60.7422 100.065 60.7422 94.8566 60.7422 89.6484Z" fill="#E4E7EC"/>
<path fill-rule="evenodd" clip-rule="evenodd" d="M91.9922 89.6484C97.2004 89.6484 102.409 89.6484 107.617 89.6484C107.617 94.8566 107.617 100.065 107.617 105.273C102.409 105.273 97.2004 105.273 91.9922 105.273C91.9922 100.065 91.9922 94.8566 91.9922 89.6484Z" fill="#E4E7EC"/>
<path fill-rule="evenodd" clip-rule="evenodd" d="M123.242 89.6484C128.45 89.6484 133.659 89.6484 138.867 89.6484C138.867 94.8566 138.867 100.065 138.867 105.273C133.659 105.273 128.45 105.273 123.242 105.273C123.242 100.065 123.242 94.8566 123.242 89.6484Z" fill="#E4E7EC"/>
<path fill-rule="evenodd" clip-rule="evenodd" d="M154.492 89.6484C159.7 89.6484 164.909 89.6484 170.117 89.6484C170.117 94.8566 170.117 100.065 170.117 105.273C164.909 105.273 159.7 105.273 154.492 105.273C154.492 100.065 154.492 94.8566 154.492 89.6484Z" fill="#E4E7EC"/>
<path fill-rule="evenodd" clip-rule="evenodd" d="M29.4922 120.898C34.7005 120.898 39.909 120.898 45.1172 120.898C45.1172 126.107 45.1172 131.315 45.1172 136.523C39.909 136.523 34.7005 136.523 29.4922 136.523C29.4922 131.315 29.4922 126.107 29.4922 120.898Z" fill="#E4E7EC"/>
<path fill-rule="evenodd" clip-rule="evenodd" d="M60.7422 120.898C65.9504 120.898 71.159 120.898 76.3672 120.898C76.3672 126.107 76.3672 131.315 76.3672 136.523C71.159 136.523 65.9504 136.523 60.7422 136.523C60.7422 131.315 60.7422 126.107 60.7422 120.898Z" fill="#E4E7EC"/>
<path fill-rule="evenodd" clip-rule="evenodd" d="M91.9922 120.898C97.2004 120.898 102.409 120.898 107.617 120.898C107.617 126.107 107.617 131.315 107.617 136.523C102.409 136.523 97.2004 136.523 91.9922 136.523C91.9922 131.315 91.9922 126.107 91.9922 120.898Z" fill="#E4E7EC"/>
<path fill-rule="evenodd" clip-rule="evenodd" d="M123.242 120.898C128.45 120.898 133.659 120.898 138.867 120.898C138.867 126.107 138.867 131.315 138.867 136.523C133.659 136.523 128.45 136.523 123.242 136.523C123.242 131.315 123.242 126.107 123.242 120.898Z" fill="#E4E7EC"/>
<path fill-rule="evenodd" clip-rule="evenodd" d="M154.492 120.898C159.7 120.898 164.909 120.898 170.117 120.898C170.117 126.107 170.117 131.315 170.117 136.523C164.909 136.523 159.7 136.523 154.492 136.523C154.492 131.315 154.492 126.107 154.492 120.898Z" fill="#E4E7EC"/>
<path fill-rule="evenodd" clip-rule="evenodd" d="M29.4922 152.148C34.7005 152.148 39.909 152.148 45.1172 152.148C45.1172 157.357 45.1172 162.565 45.1172 167.773C39.909 167.773 34.7005 167.773 29.4922 167.773C29.4922 162.565 29.4922 157.357 29.4922 152.148Z" fill="#E4E7EC"/>
<path fill-rule="evenodd" clip-rule="evenodd" d="M60.7422 152.148C65.9504 152.148 71.159 152.148 76.3672 152.148C76.3672 157.357 76.3672 162.565 76.3672 167.773C71.159 167.773 65.9504 167.773 60.7422 167.773C60.7422 162.565 60.7422 157.357 60.7422 152.148Z" fill="#E4E7EC"/>
<path fill-rule="evenodd" clip-rule="evenodd" d="M91.9922 152.148C97.2004 152.148 102.409 152.148 107.617 152.148C107.617 157.357 107.617 162.565 107.617 167.773C102.409 167.773 97.2004 167.773 91.9922 167.773C91.9922 162.565 91.9922 157.357 91.9922 152.148Z" fill="#E4E7EC"/>
<path fill-rule="evenodd" clip-rule="evenodd" d="M123.242 152.148C128.45 152.148 133.659 152.148 138.867 152.148C138.867 157.357 138.867 162.565 138.867 167.773C133.659 167.773 128.45 167.773 123.242 167.773C123.242 162.565 123.242 157.357 123.242 152.148Z" fill="#E4E7EC"/>
</g>
<defs>
<clipPath id="clip0_8119_24977">
<rect width="200" height="200" fill="white"/>
</clipPath>
</defs>
</svg>
