<?xml version="1.0" encoding="UTF-8"?>
<!DOCTYPE svg PUBLIC "-//W3C//DTD SVG 1.1//EN" "http://www.w3.org/Graphics/SVG/1.1/DTD/svg11.dtd">
<svg xmlns="http://www.w3.org/2000/svg" version="1.1" width="512px" height="512px" style="shape-rendering:geometricPrecision; text-rendering:geometricPrecision; image-rendering:optimizeQuality; fill-rule:evenodd; clip-rule:evenodd" xmlns:xlink="http://www.w3.org/1999/xlink">
<g><path style="opacity:0.931" fill="#000000" d="M 241.5,37.5 C 268.404,37.2446 283.071,50.4112 285.5,77C 285.558,87.832 281.891,97.1653 274.5,105C 287.478,108.988 299.145,115.321 309.5,124C 325.833,141.667 342.167,159.333 358.5,177C 380.526,176.732 402.526,176.065 424.5,175C 436.056,177.398 442.056,184.564 442.5,196.5C 441.863,204.949 437.863,211.115 430.5,215C 403.673,219.928 376.673,223.262 349.5,225C 334.899,217.906 320.899,209.739 307.5,200.5C 306.667,227.827 306.167,255.161 306,282.5C 302.333,293.5 298.667,304.5 295,315.5C 294.5,363.499 294.333,411.499 294.5,459.5C 342.168,459.333 389.834,459.5 437.5,460C 442.923,464.807 442.59,469.14 436.5,473C 315.5,473.667 194.5,473.667 73.5,473C 67.2809,469.122 66.9475,464.789 72.5,460C 89.8301,459.5 107.163,459.333 124.5,459.5C 128.599,386.149 132.932,312.816 137.5,239.5C 123.829,239.667 110.163,239.5 96.5,239C 96,238.5 95.5,238 95,237.5C 87.5431,213.006 80.7098,188.339 74.5,163.5C 74.0471,159.569 75.7138,157.069 79.5,156C 100.164,155.5 120.831,155.333 141.5,155.5C 141.333,138.83 141.5,122.163 142,105.5C 147.991,99.902 154.157,94.402 160.5,89C 158.341,78.9851 162.008,71.9851 171.5,68C 188.333,66.1667 195.833,73.6667 194,90.5C 188.963,101.348 180.797,104.682 169.5,100.5C 164.908,104.047 160.408,107.714 156,111.5C 155.5,126.163 155.333,140.83 155.5,155.5C 162.5,155.5 169.5,155.5 176.5,155.5C 178.779,142.497 182.945,130.163 189,118.5C 192.887,114.472 197.387,111.306 202.5,109C 207.905,107.531 213.239,105.865 218.5,104C 206.177,89.4707 204.344,73.6374 213,56.5C 219.985,46.2664 229.485,39.933 241.5,37.5 Z M 244.5,51.5 C 258.112,51.9572 266.946,58.6239 271,71.5C 272.817,86.3694 266.651,96.2028 252.5,101C 234.258,102.876 223.925,94.7091 221.5,76.5C 223.359,62.6473 231.025,54.314 244.5,51.5 Z M 175.5,81.5 C 178.233,81.1961 179.899,82.3628 180.5,85C 178.107,89.5108 175.773,89.3442 173.5,84.5C 174.193,83.4822 174.859,82.4822 175.5,81.5 Z M 241.5,115.5 C 261.088,115.395 279.088,120.561 295.5,131C 311.333,148.167 327.167,165.333 343,182.5C 346.201,186.036 349.701,189.203 353.5,192C 376.203,191.41 398.87,190.244 421.5,188.5C 427.025,190.249 428.859,193.915 427,199.5C 426.097,200.701 424.931,201.535 423.5,202C 401.202,205.4 378.869,208.566 356.5,211.5C 354.077,211.406 351.744,210.906 349.5,210C 334.167,200.333 318.833,190.667 303.5,181C 298.525,179.355 295.025,180.855 293,185.5C 292.667,216.833 292.333,248.167 292,279.5C 288.531,290.241 284.864,300.908 281,311.5C 280.5,360.832 280.333,410.166 280.5,459.5C 270.161,459.666 259.828,459.5 249.5,459C 248.941,458.275 248.608,457.442 248.5,456.5C 249.389,454.102 250.889,452.102 253,450.5C 253.667,402.5 253.667,354.5 253,306.5C 249.627,303.114 245.794,302.614 241.5,305C 240.874,305.75 240.374,306.584 240,307.5C 239.667,353.167 239.333,398.833 239,444.5C 235.093,448.72 233.26,453.72 233.5,459.5C 231.167,459.5 228.833,459.5 226.5,459.5C 222.635,386.124 218.301,312.791 213.5,239.5C 230.17,239.667 246.837,239.5 263.5,239C 265.562,237.468 266.896,235.468 267.5,233C 260.612,208.164 253.612,183.331 246.5,158.5C 245.335,157.416 244.002,156.583 242.5,156C 225.503,155.5 208.503,155.333 191.5,155.5C 192.88,146.524 195.38,137.857 199,129.5C 200.833,127.667 202.667,125.833 204.5,124C 216.497,119.081 228.83,116.248 241.5,115.5 Z M 90.5,169.5 C 138.833,169.5 187.167,169.5 235.5,169.5C 240.03,187.952 245.03,206.285 250.5,224.5C 237.851,225.499 225.184,225.832 212.5,225.5C 212.528,215.808 212.028,206.141 211,196.5C 210.535,195.069 209.701,193.903 208.5,193C 197.76,191.855 186.927,191.355 176,191.5C 164.765,191.366 153.598,191.866 142.5,193C 141.299,193.903 140.465,195.069 140,196.5C 139.212,206.155 138.712,215.821 138.5,225.5C 127.5,225.5 116.5,225.5 105.5,225.5C 100.812,206.747 95.8118,188.08 90.5,169.5 Z M 153.5,205.5 C 168.167,205.5 182.833,205.5 197.5,205.5C 202.656,290.155 207.656,374.822 212.5,459.5C 187.833,459.5 163.167,459.5 138.5,459.5C 143.578,374.839 148.578,290.172 153.5,205.5 Z"/></g>
</svg>
