<svg width="149" height="200" viewBox="0 0 149 200" fill="none" xmlns="http://www.w3.org/2000/svg">
<path opacity="0.949" fill-rule="evenodd" clip-rule="evenodd" d="M66.9923 -0.195312C72.2005 -0.195312 77.4091 -0.195312 82.6173 -0.195312C112.515 4.36621 133.153 20.6423 144.531 48.6328C150.822 66.8297 150.17 84.7984 142.578 102.539C141.016 105.664 139.453 108.789 137.891 111.914C120.019 139.455 102.05 166.929 83.9845 194.336C82.3446 196.827 80.1962 198.65 77.5391 199.805C75.7161 199.805 73.8934 199.805 72.0704 199.805C69.4134 198.65 67.2649 196.827 65.6251 194.336C47.5591 166.929 29.5903 139.455 11.7188 111.914C-3.30746 85.0109 -2.7866 58.4484 13.2813 32.2266C26.5247 13.7849 44.4282 2.97758 66.9923 -0.195312ZM69.336 8.78906C99.7809 8.08574 121.591 21.367 134.766 48.6328C141.127 64.4621 141.257 80.3473 135.156 96.2891C133.594 99.6746 132.031 103.06 130.469 106.445C112.285 134.844 93.7302 162.969 74.8048 190.82C55.8794 162.969 37.3247 134.844 19.1407 106.445C4.91723 79.7891 7.13074 54.659 25.7813 31.0547C37.5208 18.1864 52.0388 10.7645 69.336 8.78906ZM70.8985 43.5547C86.6247 42.9164 97.497 49.8176 103.516 64.2578C107.524 81.173 101.859 93.6082 86.5235 101.562C74.8005 105.885 64.1231 104.062 54.4923 96.0938C43.4809 84.5793 41.7231 71.7539 49.2188 57.6172C54.5083 49.9277 61.7349 45.2402 70.8985 43.5547Z" fill="#E4E7EC"/>
</svg>
