<?xml version="1.0" encoding="UTF-8"?>
<!DOCTYPE svg PUBLIC "-//W3C//DTD SVG 1.1//EN" "http://www.w3.org/Graphics/SVG/1.1/DTD/svg11.dtd">
<svg xmlns="http://www.w3.org/2000/svg" version="1.1" width="512px" height="512px" style="shape-rendering:geometricPrecision; text-rendering:geometricPrecision; image-rendering:optimizeQuality; fill-rule:evenodd; clip-rule:evenodd" xmlns:xlink="http://www.w3.org/1999/xlink">
<g><path style="opacity:0.935" fill="#000000" d="M 343.5,7.5 C 360.359,4.84851 372.859,10.8485 381,25.5C 382.627,29.9213 383.794,34.4213 384.5,39C 395.688,41.7553 406.855,44.5886 418,47.5C 421.434,44.0664 424.934,40.5664 428.5,37C 440.604,30.0576 452.937,29.7242 465.5,36C 480.031,47.6927 483.531,62.1927 476,79.5C 465.448,94.7932 451.282,99.2932 433.5,93C 422.166,86.6773 415.832,77.0107 414.5,64C 403.312,61.2447 392.145,58.4114 381,55.5C 377.566,58.9336 374.066,62.4336 370.5,66C 367.205,68.434 363.538,70.1007 359.5,71C 351.72,71.7 344.053,71.3667 336.5,70C 319.041,91.1277 301.208,111.961 283,132.5C 288.098,143.068 288.765,154.068 285,165.5C 276.868,180.312 264.368,186.146 247.5,183C 229.314,176.839 220.98,164.006 222.5,144.5C 210.167,138.333 197.833,132.167 185.5,126C 184.5,125.333 183.5,125.333 182.5,126C 172.46,135.619 160.793,138.119 147.5,133.5C 128.199,156.093 109.366,179.093 91,202.5C 90.3333,203.833 90.3333,205.167 91,206.5C 92.9078,209.215 94.2411,212.215 95,215.5C 98.1455,232.368 92.3122,244.868 77.5,253C 63.0483,258.305 50.215,255.805 39,245.5C 30.2065,232.815 29.2065,219.482 36,205.5C 46.2846,192.352 59.4513,188.352 75.5,193.5C 94.801,170.907 113.634,147.907 132,124.5C 132.667,123.167 132.667,121.833 132,120.5C 126.034,108.897 126.034,97.2303 132,85.5C 144.534,70.5418 159.7,67.3751 177.5,76C 188.576,84.6914 193.576,96.1914 192.5,110.5C 205.272,116.969 218.105,123.303 231,129.5C 235.755,125.086 241.255,121.919 247.5,120C 255.28,119.3 262.947,119.633 270.5,121C 287.959,99.8723 305.792,79.039 324,58.5C 318.902,47.9324 318.235,36.9324 322,25.5C 326.76,16.5485 333.926,10.5485 343.5,7.5 Z M 346.5,24.5 C 363.765,24.2567 369.598,32.2567 364,48.5C 357.749,55.0107 350.582,56.1773 342.5,52C 335.989,45.7488 334.823,38.5821 339,30.5C 341.114,27.8792 343.614,25.8792 346.5,24.5 Z M 442.5,48.5 C 459.765,48.2567 465.598,56.2567 460,72.5C 453.749,79.0107 446.582,80.1773 438.5,76C 431.989,69.7488 430.823,62.5821 435,54.5C 437.114,51.8792 439.614,49.8792 442.5,48.5 Z M 154.5,88.5 C 171.765,88.2567 177.598,96.2567 172,112.5C 165.749,119.011 158.582,120.177 150.5,116C 143.989,109.749 142.823,102.582 147,94.5C 149.114,91.8792 151.614,89.8792 154.5,88.5 Z M 250.5,136.5 C 267.765,136.257 273.598,144.257 268,160.5C 261.749,167.011 254.582,168.177 246.5,164C 239.989,157.749 238.823,150.582 243,142.5C 245.114,139.879 247.614,137.879 250.5,136.5 Z M 58.5,208.5 C 75.7649,208.257 81.5982,216.257 76,232.5C 69.7488,239.011 62.5821,240.177 54.5,236C 47.9893,229.749 46.8227,222.582 51,214.5C 53.1141,211.879 55.6141,209.879 58.5,208.5 Z"/></g>
<g><path style="opacity:0.956" fill="#000000" d="M 315.5,119.5 C 339.502,119.333 363.502,119.5 387.5,120C 388.416,120.374 389.25,120.874 390,121.5C 391.483,150.078 391.983,178.745 391.5,207.5C 385.833,207.5 380.167,207.5 374.5,207.5C 374.5,183.5 374.5,159.5 374.5,135.5C 358.833,135.5 343.167,135.5 327.5,135.5C 327.5,202.167 327.5,268.833 327.5,335.5C 343.167,335.5 358.833,335.5 374.5,335.5C 374.5,300.833 374.5,266.167 374.5,231.5C 380.167,231.5 385.833,231.5 391.5,231.5C 391.5,266.167 391.5,300.833 391.5,335.5C 396.5,335.5 401.5,335.5 406.5,335.5C 406.333,274.166 406.5,212.832 407,151.5C 407.117,148.089 408.617,145.589 411.5,144C 435.5,143.333 459.5,143.333 483.5,144C 485.333,144.5 486.5,145.667 487,147.5C 487.5,210.166 487.667,272.832 487.5,335.5C 490.167,335.5 492.833,335.5 495.5,335.5C 495.5,340.833 495.5,346.167 495.5,351.5C 430.166,351.333 364.832,351.5 299.5,352C 283.849,396.312 252.849,422.646 206.5,431C 182.185,433.948 159.185,429.781 137.5,418.5C 132.316,423.518 126.983,428.351 121.5,433C 116.797,435.36 111.963,435.86 107,434.5C 93.2902,454.754 79.4568,474.92 65.5,495C 51.5374,505.123 36.8708,506.123 21.5,498C 8.44638,487.295 4.27971,473.795 9,457.5C 11.6937,450.816 15.8604,445.316 21.5,441C 40.0059,428.914 58.3392,416.581 76.5,404C 75.1399,399.037 75.6399,394.203 78,389.5C 82.6486,384.017 87.4819,378.684 92.5,373.5C 89.0772,366.491 86.0772,359.324 83.5,352C 60.8358,351.5 38.1691,351.333 15.5,351.5C 15.5,346.167 15.5,340.833 15.5,335.5C 18.1667,335.5 20.8333,335.5 23.5,335.5C 23.3334,315.497 23.5,295.497 24,275.5C 24.3742,274.584 24.8742,273.75 25.5,273C 47.086,271.854 68.7526,271.021 90.5,270.5C 103.563,244.705 123.396,226.038 150,214.5C 150.333,204.167 150.667,193.833 151,183.5C 151.303,181.112 152.137,178.945 153.5,177C 166.075,175.851 178.742,175.351 191.5,175.5C 203.5,175.667 215.5,175.833 227.5,176C 228.416,176.374 229.25,176.874 230,177.5C 231.129,189.752 231.962,202.085 232.5,214.5C 283.641,238.097 306.974,278.097 302.5,334.5C 305.086,335.48 307.753,335.813 310.5,335.5C 310.333,266.166 310.5,196.833 311,127.5C 311.246,123.995 312.746,121.329 315.5,119.5 Z M 423.5,159.5 C 439.5,159.5 455.5,159.5 471.5,159.5C 471.5,218.167 471.5,276.833 471.5,335.5C 455.5,335.5 439.5,335.5 423.5,335.5C 423.5,276.833 423.5,218.167 423.5,159.5 Z M 167.5,191.5 C 183.5,191.5 199.5,191.5 215.5,191.5C 215.5,197.5 215.5,203.5 215.5,209.5C 199.5,206.833 183.5,206.833 167.5,209.5C 167.5,203.5 167.5,197.5 167.5,191.5 Z M 190.5,223.5 C 232.559,225.435 262.392,245.435 280,283.5C 295.329,330.505 283.495,369.005 244.5,399C 209.162,420.996 173.829,420.996 138.5,399C 99.5028,369 87.6695,330.5 103,283.5C 120.401,246.255 149.568,226.255 190.5,223.5 Z M 190.5,255.5 C 201.893,256.014 212.56,259.014 222.5,264.5C 223.5,288.157 223.833,311.824 223.5,335.5C 202.167,335.5 180.833,335.5 159.5,335.5C 159.167,311.824 159.5,288.157 160.5,264.5C 169.945,259.31 179.945,256.31 190.5,255.5 Z M 142.5,278.5 C 143.497,297.326 143.83,316.326 143.5,335.5C 138.901,335.8 134.401,335.467 130,334.5C 125.674,313.816 129.84,295.15 142.5,278.5 Z M 239.5,278.5 C 253.073,294.798 257.573,313.465 253,334.5C 248.599,335.467 244.099,335.8 239.5,335.5C 239.5,316.5 239.5,297.5 239.5,278.5 Z M 39.5,287.5 C 54.1818,287.167 68.8485,287.501 83.5,288.5C 79.5182,303.637 78.5182,318.971 80.5,334.5C 66.8496,335.499 53.1829,335.833 39.5,335.5C 39.5,319.5 39.5,303.5 39.5,287.5 Z M 137.5,351.5 C 173.506,351.167 209.506,351.5 245.5,352.5C 230.07,375.713 208.403,385.546 180.5,382C 161.501,378.187 147.167,368.021 137.5,351.5 Z M 102.5,388.5 C 105.968,392.141 109.302,395.974 112.5,400C 115.833,402.667 119.167,405.333 122.5,408C 118.985,411.682 115.318,415.182 111.5,418.5C 104.833,412.5 98.5,406.167 92.5,399.5C 95.8554,395.813 99.1887,392.147 102.5,388.5 Z M 85.5,418.5 C 87.9635,420.461 90.2968,422.628 92.5,425C 80.2094,443.081 68.0427,461.247 56,479.5C 48.472,487.428 39.972,488.595 30.5,483C 23.9848,476.049 22.8181,468.216 27,459.5C 28.5,458 30,456.5 31.5,455C 49.7386,443.058 67.7386,430.891 85.5,418.5 Z"/></g>
<g><path style="opacity:0.96" fill="#000000" d="M 178.5,239.5 C 218.986,235.985 248.153,252.319 266,288.5C 279.141,327.734 269.641,360.234 237.5,386C 213.156,400.901 187.49,403.568 160.5,394C 122.316,374.801 106.482,343.968 113,301.5C 119.825,275.015 135.658,256.182 160.5,245C 166.531,242.832 172.531,240.999 178.5,239.5 Z M 190.5,255.5 C 179.945,256.31 169.945,259.31 160.5,264.5C 159.5,288.157 159.167,311.824 159.5,335.5C 180.833,335.5 202.167,335.5 223.5,335.5C 223.833,311.824 223.5,288.157 222.5,264.5C 212.56,259.014 201.893,256.014 190.5,255.5 Z M 142.5,278.5 C 129.84,295.15 125.674,313.816 130,334.5C 134.401,335.467 138.901,335.8 143.5,335.5C 143.83,316.326 143.497,297.326 142.5,278.5 Z M 239.5,278.5 C 239.5,297.5 239.5,316.5 239.5,335.5C 244.099,335.8 248.599,335.467 253,334.5C 257.573,313.465 253.073,294.798 239.5,278.5 Z M 137.5,351.5 C 147.167,368.021 161.501,378.187 180.5,382C 208.403,385.546 230.07,375.713 245.5,352.5C 209.506,351.5 173.506,351.167 137.5,351.5 Z"/></g>
</svg>
