<svg width="18" height="18" viewBox="0 0 18 18" fill="none" xmlns="http://www.w3.org/2000/svg">
<g clip-path="url(#clip0_8156_25592)">
<path opacity="0.949" fill-rule="evenodd" clip-rule="evenodd" d="M8.27937 -0.0175781C8.74811 -0.0175781 9.21688 -0.0175781 9.68562 -0.0175781C12.3764 0.392959 14.2339 1.8578 15.2579 4.37695C15.824 6.01467 15.7654 7.63186 15.0821 9.22852C14.9415 9.50977 14.8009 9.79102 14.6602 10.0723C13.0518 12.5509 11.4346 15.0236 9.80866 17.4902C9.66108 17.7144 9.46772 17.8785 9.22859 17.9824C9.06451 17.9824 8.90047 17.9824 8.7364 17.9824C8.49727 17.8785 8.30391 17.7144 8.15632 17.4902C6.53038 15.0236 4.91319 12.5509 3.30476 10.0723C1.95239 7.65098 1.99927 5.26036 3.44538 2.90039C4.63729 1.24064 6.2486 0.267982 8.27937 -0.0175781ZM8.49031 0.791016C11.2303 0.727717 13.1933 1.92303 14.379 4.37695C14.9515 5.80159 14.9632 7.23125 14.4141 8.66602C14.2735 8.97071 14.1329 9.27538 13.9923 9.58008C12.3557 12.1359 10.6858 14.6672 8.98249 17.1738C7.27921 14.6672 5.60929 12.1359 3.97273 9.58008C2.69261 7.18102 2.89183 4.91931 4.57038 2.79492C5.62693 1.63678 6.93355 0.968808 8.49031 0.791016ZM8.63093 3.91992C10.0463 3.86248 11.0248 4.48358 11.5665 5.7832C11.9272 7.30557 11.4174 8.42474 10.0372 9.14062C8.98211 9.52963 8.02114 9.36555 7.15437 8.64844C6.16335 7.61214 6.00514 6.45785 6.67976 5.18555C7.15581 4.4935 7.8062 4.07162 8.63093 3.91992Z" fill="#101828"/>
<path opacity="0.949" fill-rule="evenodd" clip-rule="evenodd" d="M8.49026 3.11081C10.2185 2.9813 11.4665 3.68442 12.2344 5.22019C12.8075 6.78882 12.497 8.15405 11.3028 9.31589C9.91827 10.3599 8.47687 10.4419 6.97854 9.56198C5.53302 8.41512 5.11698 6.96784 5.7305 5.22019C6.30069 4.05803 7.22063 3.35492 8.49026 3.11081ZM8.63089 3.9194C7.80616 4.0711 7.15577 4.49298 6.67971 5.18503C6.0051 6.45733 6.1633 7.61162 7.15432 8.64792C8.0211 9.36504 8.98206 9.52911 10.0371 9.14011C11.4174 8.42422 11.9271 7.30506 11.5664 5.78269C11.0247 4.48307 10.0462 3.86196 8.63089 3.9194Z" fill="#101828"/>
</g>
<defs>
<clipPath id="clip0_8156_25592">
<rect width="18" height="18" fill="white"/>
</clipPath>
</defs>
</svg>
