<svg width="617" height="667" viewBox="0 0 617 667" fill="none" xmlns="http://www.w3.org/2000/svg">
<path d="M57.1975 296.098L61.3095 294.726L65.4215 296.098H77.3007L81.8696 294.726L84.154 297.927L87.8091 300.671H100.602L101.973 302.043V305.702L100.602 309.361L103.343 311.648H106.542V315.307L108.369 318.051L109.283 319.88L114.309 323.082L118.421 326.283L121.619 328.113L124.36 331.772L126.188 332.686V333.601L126.645 334.058M126.645 334.058H132.127L135.783 331.314V328.57H133.955L132.127 326.741V324.911L133.955 323.082L138.981 322.167L140.352 319.423V308.446L137.153 306.16V297.47L138.981 291.067L141.265 290.152L144.464 287.408L146.291 289.237L145.377 291.067L149.032 293.354H154.972L158.17 295.183L161.368 298.842L158.17 299.757V309.818L153.144 310.733V314.392H161.825V310.733L164.11 309.818L165.024 307.532V304.787H174.161L176.903 307.532L181.015 307.989V300.671H182.842L184.213 297.47L185.584 295.183L181.015 294.726L180.101 291.067L181.015 288.323V286.036L184.213 284.664H192.894V277.346H190.609L187.868 279.175H178.73L175.989 277.346L174.161 275.517L173.248 271.858L174.161 267.741L175.989 266.827L178.73 264.083L181.015 262.253L182.842 260.881L185.584 258.594L187.868 257.68L190.609 254.935H194.265L197.92 252.191H200.204L202.489 249.447H203.859L208.428 245.788V242.587M126.645 334.058L129.843 339.547L128.472 342.748H126.645L123.903 344.12L122.533 345.95V359.213M117.507 165.75H113.395L109.283 167.122L103.8 172.611V175.355L101.973 180.386L99.2314 184.502L97.4038 189.533L95.1194 192.277L91.4643 194.107L87.3522 197.308L83.6971 199.595L81.8696 203.711L79.1282 210.114H77.7576L75.4731 214.23L73.6455 219.719H59.4819L56.2837 222.92H51.2579L49.8873 219.719L46.2321 215.602L43.0339 214.23L40.2926 217.432L37.0943 219.719L34.9828 224.292L33.8961 227.036L29.7841 230.238L27.0427 235.269L23.8445 238.013V244.873L25.2152 247.16L28.8703 249.447H33.8961L37.0943 250.819V266.827L40.2926 270.943L46.2321 272.315H48.5166V280.09L53.9993 286.493V288.78L56.2837 293.354V299.757L53.9993 303.873L51.2579 305.245H46.2321V301.586H44.8615L43.0339 303.873H40.2926L36.1805 305.245L33.8961 307.074H29.7841L27.0427 306.617L24.6546 303.873H8.12939L6.93957 306.617V311.19L5.4311 315L1 316.679V320.338L2.82756 325.369L5.5689 327.655L9.22402 331.314L12.4223 334.973L16.5343 336.803H19.2756L23.8445 339.547H27.0427L31.6116 336.803L36.1805 334.973H40.2926L41.6632 333.601L44.8615 332.686H46.2321L44.8615 334.973L43.0339 336.803L40.2926 342.291L36.1805 345.035L33.8961 346.407L28.8703 346.865H25.2152L22.4738 348.694H19.2756L16.5343 346.407L13.7929 348.694V352.81L14.7067 355.097L17.9049 359.213L19.2756 361.043L22.4738 362.415L23.8445 365.616L27.0427 367.217L31.6116 372.477L33.8961 374.306L37.0943 376.135L40.2926 379.337L43.0339 380.709L46.2321 383.453L48.5166 385.283L51.2579 386.655H56.2837L61.7664 385.283L64.9646 383.453L69.0766 380.709L73.6455 379.337L77.7576 377.05L81.4127 374.306L83.2402 370.19V365.616L81.4127 362.415V359.213H84.6109V353.725H88.7229L87.3522 355.097V359.213H91.0074L90.0936 361.043V365.616L95.1194 367.217M117.507 165.75V157.518L122.533 151.115L129.843 144.712L132.584 141.968V132.363L129.843 125.96L132.584 122.759L135.783 118.642L140.352 115.441L145.834 113.154L148.576 110.41M117.507 165.75L117.964 166.208L122.076 168.952H127.559M148.576 110.41L145.834 107.666M148.576 110.41L148.119 109.953M145.834 107.666H137.61L134.412 106.294V99.8906H129.843V97.6038L127.102 93.4876L122.533 89.8287L119.791 86.1699L122.533 83.8831V77.0227H119.791V71.9917L122.533 70.1623L124.36 66.9608H117.507V62.8446H119.791V58.7283H115.223V52.7827H119.791V50H122.533L124.36 46H129.843L130.3 42L127.559 38.5H124.36V35.5L117.964 33.5L115.223 28.5H109.283L103.8 24.5L105.431 18L109.283 14.5H111.931L115.223 9V6H127.559V2.5H140.352L144.464 1H148.119L151.774 2.5H153.601L158.627 1H159.998L160.912 6L164.567 9L168.222 14.5H171.877L175.532 18L181.015 21.5L184.213 24.5L186.041 28.5L189.239 30.5L194.721 32L197.006 35.5V38.5H207.514L212.54 35.5L219.85 30.5L223.506 27L226.247 24.5H232.643L234.928 28.5L238.583 32L242.238 33.5H246.35V35.5L250.005 38.5V42L248.634 48L248.178 52.7827L246.35 54.6121L245.893 56L240.931 56.5V58.7283L239.931 60H236.755V64.674L234.928 70.1623H225.333L226.247 74V77.0227L225.333 80.2242V83.8831L230.359 86.1699H234.928V101.72L232.643 106.294H230.359L227.618 107.666H221.678V101.72L218.023 106.294L216.195 104.464L211.88 101.873M145.834 107.666L148.119 109.953M223.506 135.565L222.592 134.193L220.307 132.82L221.221 130.991L222.592 127.332L221.221 125.96L219.85 124.131L220.307 122.301L221.221 119.557L220.307 117.728L217.109 114.526L216.195 111.782V107.666L211.626 101.72L211.88 101.873M223.506 135.565H224.876L228.531 131.906L229.445 133.278L230.816 136.937L233.1 139.224L235.842 142.425L238.583 144.712H246.35L248.178 145.627L250.005 148.828L251.833 150.2L254.117 153.859L261.427 156.603L264.626 158.89L266.91 161.177L267.367 163.006L264.626 165.75L261.884 167.58L260.514 169.409L257.772 172.153L256.402 174.44V177.642L255.488 180.386L254.117 182.673V186.789L253.203 189.076L250.005 192.277V197.308M223.506 135.565L224.419 136.479M250.005 197.308L254.117 200.052L257.772 201.424H261.427L264.626 203.254L268.281 207.37L273.307 210.114L276.962 213.316L279.246 215.145L282.444 216.975L285.186 217.889L288.841 219.261H294.324L297.065 223.378H305.289L306.66 225.664V229.323H316.254L318.082 232.525L319.452 230.695V229.323H324.021L325.849 230.695H329.276M250.005 197.308L248.634 197.765L245.893 196.393H242.238L238.583 195.021H236.755L234.014 193.649L230.816 190.448L228.074 189.99L223.962 187.246L222.592 184.959L223.962 181.758L221.678 180.386L218.937 178.099L216.652 176.27L214.825 173.983L213.454 169.409L209.342 168.494V173.983L207.514 176.27H202.945L200.661 173.983L201.575 168.494V167.122L202.945 163.921V161.634L200.661 159.805L197.92 158.433M419.968 250.362L417.227 253.563H415.399V254.478H406.262L404.434 255.393L400.779 254.478L398.038 253.563L396.667 250.362H394.382L392.555 253.563H390.27L386.158 250.362H383.874L379.762 248.99L375.65 248.075L374.736 248.99L372.909 250.362L369.254 248.99V245.331L366.969 243.501L365.142 245.331L362.4 246.246H358.288V245.331L354.633 243.501L353.719 241.672H351.435L346.866 239.385L345.495 236.184V232.982H343.668L339.099 230.695L337.271 229.323H334.987L332.702 230.695H329.276M419.968 250.362L420.898 246.246V241.672L418.338 238.928L417.227 234.812M419.968 250.362L421.636 249.447L422.71 251.187L424.08 253.563L422.71 256.307M417.227 234.812L418.338 232.525V227.036L419.968 224.292V222.463L420.898 218.347H423.167L425.451 216.975L429.106 215.602H435.503V221.091L437.33 222.463L436.416 226.122V232.982L435.503 234.812M417.227 234.812L420.898 237.658H426.835L429.106 236.097L434.132 235.577L435.503 234.812M435.503 234.812L436.416 238.928L439.158 241.672V243.501H448.752L451.951 246.246M451.951 246.246H462.002M451.951 246.246H456.52M462.002 246.246L465.2 243.501H468.399L472.054 245.331H495.355L499.01 243.501H504.036M462.002 246.246H456.52M504.036 243.501V229.323H497.183L495.355 226.122L497.183 221.091L500.381 222.463H504.036L506.777 221.091H509.519L515.458 220.176L518.2 216.975V213.316H520.484L524.139 209.199V207.37H527.338V205.083L531.906 202.339L533.734 200.967H537.389L541.958 199.138L542.872 198.223L546.984 197.308L549.725 194.564L553.837 191.82V186.331L557.035 185.417L562.518 186.331L564.346 188.618H567.544L570.285 189.99L573.94 190.905L576.225 188.618L579.423 187.704L581.707 185.417L583.535 184.502L584.449 183.587H591.759L592.673 184.502H594.5L595.414 185.417L594.5 188.618L595.414 189.99L598.612 192.735L599.526 194.564L600.44 197.308V199.138L599.069 201.882L598.612 203.254L602.268 201.882L603.638 202.339L605.466 204.169L607.293 205.083L607.75 207.827H610.948L612.776 207.37L615.517 209.199L616.431 211.486V217.889L613.233 220.176L611.405 221.091L608.664 223.378L607.293 225.664L607.75 229.323L608.664 231.61L611.405 233.897V238.47H609.578L607.293 236.184L605.466 235.269L603.638 233.897L601.354 232.982L597.242 233.897H593.587L589.475 235.269L582.164 242.587L578.509 245.788L573.94 247.618L570.285 249.904L569.371 252.649L568.001 254.935L568.915 257.68L570.285 261.338L571.656 263.625L569.371 266.827L567.087 268.199V271.4L565.259 272.315L563.432 274.144L562.061 276.431L560.691 276.889L559.32 277.918M504.036 243.501L508.148 241.215H513.174L515.915 239.385H520.941L525.053 241.215H537.846L538.76 240.3L542.415 239.385L543.786 235.726L545.613 233.897L546.527 230.695L551.553 227.036H555.208L557.949 223.378H561.147L562.061 222.005L567.544 221.091L569.828 219.719H573.94L577.139 218.804L578.509 216.06H584.906L587.19 217.432L586.276 219.719L584.906 223.378V227.036L586.276 230.695V233.897H582.621L578.509 234.812L577.139 235.726L575.768 237.098L573.94 238.013L572.113 241.215M533.734 312.105H536.018L539.674 312.563H542.872L544.699 313.477H549.725L551.096 310.276V307.532L552.923 304.33L553.837 300.214L555.208 297.927L556.578 296.098L557.949 294.726L558.863 292.896L560.691 290.609L561.604 286.95V286.036L559.32 284.206L557.949 282.834L558.863 278.261L559.32 277.918M533.734 312.105L532.82 313.477V320.795L533.734 324.911V332.229L532.82 333.601L530.079 334.516L528.251 336.803L527.338 338.632V345.492L528.251 348.237V352.353L524.139 356.012L523.226 358.298L520.941 356.926L519.114 356.012H517.286L516.829 357.384H515.458V352.353L515.001 347.779H514.545V342.748L513.174 340.004L511.803 336.803L510.889 333.601V326.741L509.976 325.369L508.605 320.795L507.691 319.423M533.734 312.105L531.906 311.19V309.361H525.053V302.501M507.691 319.423H504.493M507.691 319.423H507.234M504.493 319.423L502.665 320.795L501.295 323.082V326.741H499.467L499.01 330.4V334.516H493.528L492.614 333.144L490.329 330.4L489.416 329.942L488.959 326.741L486.217 323.997L485.76 320.338V315.307L487.131 313.477L490.329 311.19L492.157 310.276L494.898 308.446L496.726 307.989L501.295 305.702V304.33L502.665 302.501L505.407 301.129L506.777 297.927L507.691 295.183V292.439L508.605 291.067H510.889L513.174 290.609V289.237L510.889 287.865L510.534 287.764M504.493 319.423H507.234M453.778 260.881L456.063 264.083L456.976 266.369V270.028L457.89 271.858L459.718 272.589M453.778 260.881H451.951M453.778 260.881H453.321M451.951 260.881L451.037 264.997H450.123L447.382 264.083L444.184 261.796L441.442 259.509M451.951 260.881H453.321M433.592 256.307H428.649L424.08 260.881L420.898 264.083V266.369L424.08 269.113L425.908 270.028L427.735 274.144L430.934 277.346L434.132 276.889L436.873 279.175L439.158 281.92L438.701 283.749H434.132L429.563 284.664L426.822 286.493V288.323L419.968 292.896V296.555L420.898 298.842L423.167 301.129L424.994 302.043L426.822 303.415H433.218V308.446L434.132 310.733V312.563L431.847 314.392L429.563 315.764V318.051L430.934 321.252L431.847 322.167L434.132 323.539V327.655L438.701 332.229L436.873 336.803V340.004L438.701 343.206L439.158 347.779V350.981L440.985 355.097V356.926L437.787 357.841L440.985 361.043V368.818L437.787 366.988H431.847V361.043L429.563 366.988H425.908L423.167 364.701L420.898 361.043V357.841L423.167 355.097L419.968 353.268L418.598 350.981L417.227 347.779L416.77 349.151L417.227 350.981L419.055 353.725L419.511 355.554V357.384L418.141 359.671L416.313 361.957L412.658 363.787L409.46 365.616M409.46 365.616L406.262 366.531M409.46 365.616L408.089 366.008M406.262 366.531L402.607 366.988L398.951 368.818L397.124 370.647V372.477L394.382 374.763V380.709L395.753 383.453L397.124 387.569L395.753 391.228L393.469 392.143V395.802L388.9 397.631L387.072 399.918L385.245 403.577L383.874 404.949L382.96 403.577L381.133 403.12L380.219 401.748L379.305 401.29L380.219 405.406V406.779H377.478L374.736 407.693L371.081 407.236H369.254L366.055 405.406H362.4L360.573 407.236L358.745 409.523V411.81L357.831 413.182L356.917 416.84L354.176 419.585L351.892 422.786M406.262 366.531L408.089 366.008M351.892 422.786L349.607 425.073L346.866 429.189L344.125 432.848L338.642 438.336L335.444 440.166L333.616 441.995H331.789L329.504 444.282L325.849 446.569L324.478 448.856L321.737 452.057L319.452 453.429L318.082 456.173L314.427 459.832L312.142 461.204L308.487 463.034L301.634 465.32L297.979 467.607V479.041L297.065 480.413L293.867 482.243L290.668 483.615L287.013 484.987H273.307V490.018L271.936 492.305V494.591L268.738 497.336L266.91 498.25H265.539L264.169 496.421H260.057L256.859 498.25L254.574 501.452L251.833 505.568V506.94L249.548 510.599V522.033L251.833 527.064V530.723L250.919 533.01L251.833 538.041L254.574 544.444V547.188M351.892 422.786L346.866 422.329L344.125 425.073H340.926V429.646H333.616L329.504 429.189L327.677 426.902L325.849 425.073L324.478 422.786H319.452L318.082 425.073V431.019H314.427V439.251H308.487V440.623L301.634 441.081V439.251H299.806V436.507H297.979L297.065 438.336V447.484L293.867 446.569L290.668 448.856H288.384L284.272 450.685V452.057L279.703 452.514M254.574 547.188L251.833 549.475L247.721 548.56L245.893 550.847L243.609 553.591H233.557L231.273 557.25L227.618 558.164H222.135L219.394 559.536L218.023 563.195L216.195 565.482L213.911 565.94H211.626L209.342 564.11M254.574 547.188V556.335L253.203 560.909V565.482L251.833 568.226L250.919 572.342L249.548 573.715L247.721 576.001L245.893 577.373L243.609 581.49H240.867V584.691L242.695 586.063V593.838L240.867 595.21L243.609 597.497V616.706L242.695 617.621H235.385L233.557 618.993L232.186 620.823V626.311L229.445 627.226L226.704 631.342L225.333 634.086L226.704 637.745L229.445 638.66H235.385L236.298 641.861L233.557 640.489H223.962L219.394 641.861L218.023 643.233L214.825 644.605H212.54L209.342 648.721V655.582L207.514 658.326L203.859 661.07L200.204 663.357L197.92 664.272L195.635 665.644H190.153L186.497 661.985M186.497 661.985L185.127 661.07L183.299 659.241L181.929 657.411L180.101 654.667H178.73L177.36 650.094L176.446 648.721L173.248 644.605L171.877 643.233V638.66L170.506 635.458V634.086H171.877L170.506 627.226V625.396L168.679 623.567L167.308 618.993L164.567 614.42V613.047L162.739 608.016L160.455 606.644L159.084 602.528V599.784L154.972 592.924L153.601 590.18L151.774 586.063H150.403L147.205 581.49L145.834 578.288L143.55 574.172L141.265 570.513L139.895 567.769L138.981 564.11M186.497 661.985L189.239 658.326V654.667L188.325 652.38V650.094L186.954 646.892L188.782 643.233L189.239 640.489L192.437 639.117L193.351 635.458H190.153L189.239 631.342V620.823L188.325 617.621H186.954L184.213 618.993L181.929 617.621L180.101 614.42V610.761L178.73 606.644V602.528L177.36 599.784L174.161 598.869L173.248 595.21H170.506L168.679 591.552L171.877 589.265L170.506 586.063M138.981 564.11L137.61 560.909H136.239V553.591L135.326 549.475V545.816L133.955 542.614V541.242L130.757 538.498V531.638L128.015 530.723V526.607L126.645 524.777L125.731 523.405L123.903 521.118L122.076 520.204L121.556 519.267M138.981 564.11L142.636 566.397L145.834 568.226L147.662 571.428L150.403 573.715L153.601 577.373L157.256 579.203L159.084 581.49L162.739 582.862L165.937 584.691H168.679L170.506 586.063M115.223 502.824V506.025H117.05V507.398L118.421 511.056L119.791 512.886V516.087L121.556 519.267M115.223 502.824L113.395 499.622L110.197 495.964V490.475L108.369 488.646L106.999 484.987V479.956L105.628 476.297V473.553L104.257 468.065V465.32L102.887 462.119V458.917L101.059 455.259V452.514L99.2314 449.313V446.569L96.9469 441.538V435.592L94.6625 433.305V415.468L93.2918 413.182L91.0074 409.065V401.748M115.223 502.824L116.593 502.367L118.421 500.08H125.274M91.0074 401.748L93.2918 396.259L94.6625 389.856L96.9469 386.655L94.6625 383.453L93.2918 379.337L91.0074 377.05V370.19L93.2918 368.36L95.1194 367.217M91.0074 401.748H94.6625L95.1194 398.089L97.8607 397.174L101.059 399.461H106.085V392.143H107.455V388.484L110.197 389.856H113.852L116.136 388.484V379.337L110.197 377.05L111.111 376.135H113.852L118.421 372.477L120.248 370.19L122.99 368.36M95.1194 367.217L96.9469 366.074M170.506 586.063H174.161L177.36 589.265H180.101L181.929 586.063L185.127 584.691H192.437L194.265 582.404H198.377L198.833 580.118V577.373L194.265 576.001V573.715L195.635 571.428V566.397H198.377L199.747 563.195L201.118 561.823H203.859L206.601 562.281L209.342 564.11M209.342 564.11L211.626 561.823L214.825 560.909V557.25L218.023 553.591V552.219H213.911V548.56L212.54 545.816H209.342L207.514 544.444L206.601 542.614L205.687 539.87H203.859L202.032 539.413L199.747 539.87L194.265 542.614L192.437 541.242L190.153 539.413L189.239 540.327L186.954 543.072H184.213L183.299 541.242V538.498L181.929 536.669L182.385 535L184.213 533.679L186.041 533.924L186.431 535.5L186.954 536.669H190.153H191.98V531.18L189.239 530.266H186.041L182.385 531.18L181.553 533.679M181.472 533.924L181.553 533.679M195.178 440.623L195.635 442.453V450.685L195.178 452.057L194.265 456.173L197.006 458.46L195.635 459.832V461.204L192.437 463.034L191.98 465.32L192.437 467.607V475.382L191.98 480.413H190.153V483.615H191.98L195.178 484.987V489.103L194.265 492.305L191.98 493.219H186.954L186.041 494.134V500.995L184.213 503.739V506.94L186.041 509.227L186.954 512.428L184.213 513.801H178.73L179.187 516.545L180.558 518.374L179.187 520.204L178.273 521.118V523.862L179.187 525.234L180.558 527.979H181.472V530.723L181.553 533.679M195.178 440.623H192.437L191.98 439.251L191.066 438.336L189.239 439.251L186.954 442.453L184.213 444.282H181.472L180.558 446.569V450.685H178.273L176.903 454.344H170.963L169.592 458.46V462.119H167.308L163.196 461.204L161.368 462.119L158.627 461.204L155.429 459.832H154.058L152.688 463.034L154.058 465.32V470.351H146.291L144.92 473.096H142.636L140.808 471.724L138.067 473.096L137.153 476.297L133.498 477.212V480.413L130.757 479.499H128.015L125.731 480.413V483.615L128.015 486.816H130.757V492.305L128.929 494.134L125.274 500.08M195.178 440.623L195.635 437.422L197.92 436.507L199.747 434.677L201.118 432.848L203.402 431.019V429.646L201.118 426.902L199.747 425.073L202.489 419.585L203.402 418.67L206.144 419.585L207.971 420.042L210.256 418.67V416.383L211.626 413.639L212.54 411.352V406.321L216.195 407.236H221.678L223.506 409.523L224.876 412.267H227.618L228.531 411.352H232.186L232.643 412.724L235.842 413.639L238.126 414.554H241.324V412.267H243.609L244.522 413.639L245.893 415.468L246.807 418.213L245.893 418.67V425.073L246.807 427.36V431.019L249.091 432.848H251.833M125.274 500.08L125.731 502.367V516.087L125.274 516.545L123.447 517.002L121.556 519.267M251.833 432.848L253.889 433.763M251.833 432.848L253.66 433.661M279.703 452.514L277.419 452.057H270.108L268.738 450.685L267.367 447.484L265.996 444.739H263.712L261.884 441.081V438.336L260.971 437.422L258.229 435.592L255.945 434.677L253.889 433.763M279.703 452.514V446.111L281.531 442.91L285.643 440.623L288.384 436.964L291.582 433.305L293.41 430.561V419.585L291.582 415.011V412.724L288.384 408.608L287.013 405.864V403.577L290.212 401.29L295.237 403.577L298.892 405.864L303.918 408.608L307.116 405.864L305.746 401.29H298.892V381.624H300.72L303.918 377.508H315.34C314.579 377.355 313.513 376.867 315.34 376.135C317.534 373.574 318.996 371.105 319.452 370.19L320.366 367.446L322.194 364.701L323.564 361.957V355.097L325.849 354.182L327.22 352.81L330.875 348.694L333.159 348.041M122.99 368.36H124.36M122.99 368.36H118.421L113.852 366.074L114.766 361.957L116.136 361.043L120.248 359.213H122.533M253.66 433.661V425.988L255.945 424.616V419.585L256.859 416.383H258.686L260.057 418.67H264.169V413.182L262.341 411.352L260.057 408.608L256.859 406.321V403.577L259.6 401.748V399.461H256.859V396.259H260.971V392.143L256.859 389.856L258.686 386.655V385.74L258.229 383.453L255.945 379.337L260.971 374.306L260.322 373.007M253.66 433.661L253.889 433.763M306.66 314.392V315.764L303.461 316.679H290.212L287.927 314.392H283.358L282.444 320.338V323.539H287.927L289.755 324.911L291.125 325.826L292.496 326.283L294.78 328.113V330.857L292.496 332.686L287.927 337.26H285.186V342.748L282.444 343.663L280.16 345.492L279.246 347.779H274.677L272.85 348.694L271.479 351.438V353.268L269.651 356.469H267.367L265.996 358.298V362.872L264.169 364.701V371.562L260.514 372.934L260.322 373.007M306.66 314.392H315.34L318.082 309.818L319.452 307.989M306.66 314.392V296.555L303.461 294.726L299.349 295.183H297.065L294.78 292.896L292.496 291.067L288.841 290.152L285.186 288.323L282.444 286.036L280.16 284.664H274.677L271.479 288.323L269.651 290.152H265.996L265.083 288.323L265.996 284.664H260.514L257.315 286.036H254.574V280.547H247.721L246.807 281.92L244.522 283.292L242.238 286.036H236.298L233.1 283.292H227.161L225.333 282.377V277.346H223.049L220.307 279.175L217.566 280.547V286.036L220.307 290.152V292.896L221.678 296.555H223.049L225.333 300.671V304.787H223.049C222.135 305.702 219.759 306.983 217.566 304.787C215.373 302.592 213.302 301.129 212.54 300.671L210.713 299.757V292.896L209.342 291.067V288.323H210.713L212.54 286.036V281.92L210.713 280.547V277.346L212.54 275.517H216.195L217.566 272.315H220.307L221.678 269.113L223.049 266.827L225.333 262.253V258.594L227.618 257.68V252.191L223.049 246.703L218.48 245.788H216.195L210.713 243.501L208.428 242.587M319.452 307.989H321.737L323.564 309.818V313.02L325.849 315.764L329.504 320.338V322.167H332.245V326.283L333.159 329.485L335.444 332.686L338.642 334.973H340.469V339.547L336.814 340.461L335.444 341.376L333.159 342.748V348.041M319.452 307.989L320.366 304.787L321.737 302.501L320.366 300.214V298.842H322.651L323.564 295.183L321.737 292.896L318.996 291.067L318.082 287.408V285.121L320.366 281.92L322.651 280.09L325.849 278.718L330.418 275.974L332.702 274.144L334.987 271.858H337.271L340.013 272.772L344.581 271.858L346.866 270.028L343.668 266.827L340.469 266.369L337.271 264.083L334.987 261.796L334.53 259.966L333.616 258.137H336.357V255.85L334.53 253.563L331.789 252.191L334.987 248.99H340.013V244.416L336.357 241.672L333.616 239.385L331.789 236.184L329.504 232.525L329.276 230.695M208.428 242.587L203.859 241.215H201.575L197.463 243.959L193.351 246.246L191.066 244.873L193.351 241.215L196.549 238.47L194.721 235.726V232.525L191.066 228.866V224.75L188.325 221.548M391.184 352.81L388.9 350.981L385.702 349.609L382.503 348.694L380.676 346.865L377.021 345.492L376.107 347.779V355.097L374.279 357.841L369.254 356.469L367.426 355.097H361.486C360.755 355.097 360.268 356.012 360.116 356.469H357.374L354.633 354.182L357.374 351.895V347.779H353.719L346.866 348.694L342.297 350.981L338.185 349.609L334.073 347.779L333.159 348.041M391.184 352.81L394.839 355.097L397.581 356.469L399.865 357.841L401.236 360.128L402.607 361.957H405.348L406.262 362.872L407.175 364.701L408.089 365.616V366.008M391.184 352.81L393.012 350.981V347.779L390.27 344.12L388.9 342.748L386.615 341.376L385.702 340.004L384.788 339.089V337.717L385.702 336.345V334.973H380.676L377.934 333.601L377.021 332.686L374.279 331.314V323.997L376.107 321.71H377.021L378.848 323.082H382.503L383.417 321.71L385.702 319.423H390.27L391.184 317.136L393.012 314.849L396.667 312.563L398.494 314.849L401.236 316.221L403.063 315.764V310.276H407.175L408.089 307.989H409.46L411.287 305.702V303.873L412.658 302.958V300.214L414.029 297.927H415.856V291.067L413.572 286.95V281.462M127.559 168.952L130.3 172.611L131.671 177.642V181.301L133.498 183.587H136.696V181.301L139.438 183.587L144.464 185.874H150.403V188.618L151.774 192.735L153.601 195.021V199.138L156.343 202.796L158.627 206.455L160.912 209.657L162.739 211.944V218.804L165.937 221.548L167.308 216.517L170.963 215.145V211.944L175.532 216.517L177.36 215.145L178.73 211.944L179.644 211.486L181.472 215.145V221.548L184.213 224.75L188.325 221.548M127.559 168.952L131.671 169.867L133.498 168.952H138.524L141.265 170.324L144.007 170.781L145.377 174.898L146.748 177.184L148.119 174.898L151.317 173.525H162.739L165.024 172.611L166.851 170.324V167.122L169.136 164.836H171.877L175.532 163.464L178.273 158.89L181.015 158.433L181.472 156.146L179.187 151.572L178.73 147.913L180.558 146.084M188.325 221.548L190.609 220.176H192.437L194.265 218.347L195.178 214.688V211.486L193.351 206.455L191.066 204.169V199.138C191.066 198.406 190.762 197.918 190.609 197.765L188.782 195.479L186.497 193.649C186.863 192.917 187.259 191.21 187.411 190.448V182.673L185.584 181.301M185.443 181.301V179.471L185.584 177.184L186.041 174.898L188.325 172.153L189.239 168.952L190.609 167.122L193.351 164.836C193.503 164.378 193.99 163.281 194.721 162.549L197.006 160.262V157.975L193.351 157.061H190.609L188.782 155.231L187.411 153.402L186.497 149.743L184.213 147.913L180.558 146.084M180.558 146.084L177.36 143.797V139.681L174.161 135.107H165.937V128.704L162.739 124.131V121.844L158.627 117.728H156.343V111.782H158.627L160.912 107.666L159.541 104.464H156.343L153.601 107.666H150.403L148.119 109.953M122.533 359.213H126.645L128.929 357.384V361.043L132.127 364.701L136.696 365.616L142.179 367.217L144.464 370.19H147.205L152.688 372.477H161.368L163.653 371.562L165.024 376.135L167.765 378.422L169.592 377.05H170.963L176.903 376.135L178.273 371.562L180.558 368.36L181.472 365.616L186.954 364.701H195.178L195.635 367.217L192.437 370.19L199.747 372.477H203.402L207.971 371.562L210.256 368.36L212.54 367.217H216.195L217.566 368.36H219.85L224.876 367.217L230.359 365.616L232.643 364.701H235.842L236.755 364.244L239.04 366.988H241.324L243.609 366.074L244.522 367.217L249.091 368.36V366.074H254.117L256.859 369.732L259.6 371.562L260.322 373.007M159.998 104.464V95.317C160.607 95.6219 162.008 96.0488 162.739 95.317C163.47 94.5853 167.308 91.2008 164.567 93.4876C165.48 92.5729 167.491 90.652 168.222 90.2861L170.963 88.914L171.42 87.0846H173.704C174.161 87.0846 176.903 86.1698 177.36 87.0846C177.725 87.8163 179.339 89.5238 180.101 90.2861C181.472 90.7435 183.299 91.6582 184.213 92.1155M184.213 92.1155C185.127 92.5729 187.411 94.8597 188.325 95.317C190.609 95.7744 192.437 95.7744 193.351 95.7744C194.265 95.7744 194.721 95.317 195.635 95.317C196.549 95.317 197.92 93.4876 198.377 93.4876C198.742 93.4876 200.052 93.7925 200.661 93.945L201.118 94.4023C202.489 95.7744 202.945 97.1465 203.402 97.6038C203.859 98.0612 204.316 99.8906 203.859 100.348C204.773 101.72 206.144 102.177 206.601 102.177C206.966 102.177 208.276 101.873 208.885 101.72L211.169 100.805L211.88 101.873M184.213 92.1155V90.2861L178.73 83.8831L175.532 82H171.877L174.161 77.0227L171.877 75.5L169.136 74L166.851 70.1623H164.567V66.9608L160.912 64.674H158.627L157.931 61.5V56H168.431L174.431 53L176.931 51.5H183.931V48.5L185.431 44.5H188.431L189.431 42V41L188.431 42L185.431 36L185.931 35H188.431L192.431 36L195.931 38H196.931M212.083 102.177L211.88 101.873M323.108 298.842H331.332L333.159 297.012L335.444 298.842L338.185 300.671L341.84 302.043L343.211 305.245H346.409L349.15 300.671L350.978 298.842L352.805 302.958H355.09L356.461 302.043L359.202 300.671H365.598L368.797 298.842V293.354H374.279L377.934 296.098L379.305 298.842L381.59 300.671L383.874 303.873H385.245L387.072 302.043V300.671L388.443 297.012L392.098 297.927H394.839C396.667 297.927 397.428 296.707 397.581 296.098V289.237L400.779 286.95L405.348 283.292L406.719 281.462H413.572M413.572 281.462V277.346L417.684 275.974L419.968 274.144L419.055 271.858L415.856 269.571L414.943 268.656L413.572 266.827V264.997L415.856 263.625L417.684 262.253L420.882 259.966L422.71 255.393M433.218 256.307L435.96 257.222H437.787V254.478H440.072L441.442 256.307V259.966M197.694 158.433L198.377 155.688L199.747 155.231L200.661 153.859L199.747 150.2V147.456L201.118 143.34L203.402 140.138L206.601 137.851L210.256 136.937L212.54 136.022L215.282 136.937L218.48 138.309L221.678 137.851M221.678 137.851L223.962 140.138H226.247V138.309L224.419 136.479M221.678 137.851L222.592 136.022L224.419 136.479M453.321 260.881L454.692 259.052H456.52V254.021L458.347 252.191V249.447L456.52 247.16V246.246M459.718 272.772V272.589M510.534 287.764L507.691 286.95L505.407 283.749H500.381C500.381 283.597 500.198 283.383 499.467 283.749C498.736 284.115 496.117 284.816 494.898 285.121H490.329L488.045 282.834H483.476L480.735 283.749H477.993L474.338 284.664H467.028L464.287 282.834H462.459L458.804 281.92L456.976 281.005L456.063 278.261L458.347 275.974V274.144L460.175 272.772L459.718 272.589M510.534 287.764L511.346 286.95C512.26 286.341 514.91 284.755 518.2 283.292C521.489 281.828 520.484 281.767 519.57 281.92V279.175H518.2L516.829 276.889L515.458 273.687L511.346 270.943C510.585 270.486 508.696 269.571 507.234 269.571V265.912C507.844 265.302 509.336 263.9 510.433 263.168C511.529 262.436 509.976 262.863 509.062 263.168H498.553L495.812 264.997L494.441 267.741H491.7L490.329 269.571H487.588L485.304 267.741L481.648 265.912H478.45L474.795 264.997H466.114C465.018 264.997 463.525 265.607 462.916 265.912L461.088 267.741L459.718 269.571V272.589M506.321 299.757L509.062 302.501L511.346 307.989M511.346 307.989L510.433 311.19V314.392L509.062 316.679L507.234 319.423M511.346 307.989L513.174 306.16L518.2 304.787L519.57 302.501L522.769 301.586L525.053 302.501M525.053 302.501V299.299L527.794 296.098V291.067L529.622 288.78L531.906 284.206L532.82 283.292M532.82 283.292L534.648 279.633V277.346L531.906 275.974L532.82 272.315L536.018 270.028L537.846 267.741L538.76 266.369L541.501 267.741C543.694 266.644 546.375 262.406 547.441 260.424L549.725 256.765L551.553 253.563L555.208 251.276H556.122L557.949 249.447L562.061 245.788L565.716 243.501L569.828 241.215H572.113M532.82 283.292H537.846L540.587 279.633V275.974L542.415 274.602H545.613L549.725 275.974H551.553L553.837 274.602L556.122 273.687H557.949L559.32 274.602V277.918M559.32 278.261V277.918M572.113 241.215V248.532" stroke="#98A2B3"/>
</svg>
