<?xml version="1.0" encoding="UTF-8"?>
<!DOCTYPE svg PUBLIC "-//W3C//DTD SVG 1.1//EN" "http://www.w3.org/Graphics/SVG/1.1/DTD/svg11.dtd">
<svg xmlns="http://www.w3.org/2000/svg" version="1.1" width="512px" height="512px" style="shape-rendering:geometricPrecision; text-rendering:geometricPrecision; image-rendering:optimizeQuality; fill-rule:evenodd; clip-rule:evenodd" xmlns:xlink="http://www.w3.org/1999/xlink">
<g><path style="opacity:0.937" fill="#000000" d="M 347.5,-0.5 C 349.5,-0.5 351.5,-0.5 353.5,-0.5C 358.51,2.00696 360.843,6.17363 360.5,12C 358.033,36.5033 355.533,61.0033 353,85.5C 349.481,94.6732 343.481,96.6732 335,91.5C 333.128,88.7946 332.295,85.7946 332.5,82.5C 335,58.1667 337.5,33.8333 340,9.5C 340.501,4.51808 343.001,1.18474 347.5,-0.5 Z"/></g>
<g><path style="opacity:0.944" fill="#000000" d="M 195.5,66.5 C 215.466,65.9078 233.799,71.0745 250.5,82C 285.47,105.302 313.97,134.802 336,170.5C 349.682,192.532 360.682,215.866 369,240.5C 375.193,259.711 377.526,279.378 376,299.5C 374.388,317.248 365.888,330.414 350.5,339C 345.682,340.869 340.682,341.869 335.5,342C 287.815,345.835 240.149,349.835 192.5,354C 214.124,385.413 235.624,416.913 257,448.5C 264.533,463.655 264.199,478.655 256,493.5C 240.043,511.859 221.21,515.359 199.5,504C 195.367,500.869 191.534,497.369 188,493.5C 164.167,458.333 140.333,423.167 116.5,388C 111.498,389.656 106.498,391.656 101.5,394C 61.7501,403.042 33.9168,388.876 18,351.5C 9.8416,323.314 16.6749,299.481 38.5,280C 54.9705,269.029 71.3038,257.862 87.5,246.5C 114.333,192.167 141.167,137.833 168,83.5C 174.921,74.1264 184.088,68.4597 195.5,66.5 Z M 198.5,87.5 C 213.325,87.7181 226.991,91.8848 239.5,100C 273.137,122.806 300.304,151.64 321,186.5C 337.247,211.332 348.247,238.332 354,267.5C 357.373,282.941 355.373,297.608 348,311.5C 341.139,319.704 332.639,322.871 322.5,321C 309.45,317.474 297.45,311.808 286.5,304C 237.431,265.73 203.264,216.897 184,157.5C 178.205,139.729 177.205,121.729 181,103.5C 184.528,95.4652 190.361,90.1319 198.5,87.5 Z M 159.5,146.5 C 175.826,210.31 208.493,264.143 257.5,308C 264.989,313.911 272.655,319.577 280.5,325C 241.686,328.748 202.853,332.248 164,335.5C 145.167,308 126.333,280.5 107.5,253C 125.245,217.678 142.578,182.178 159.5,146.5 Z M 92.5,268.5 C 109.601,293.181 126.601,318.014 143.5,343C 128.772,353.392 113.772,363.392 98.5,373C 68.3107,381.488 47.8107,370.988 37,341.5C 33.1892,323.266 38.3559,308.099 52.5,296C 66.0733,287.058 79.4066,277.891 92.5,268.5 Z M 161.5,355.5 C 165.29,354.899 168.456,355.899 171,358.5C 193.086,391.673 215.419,424.673 238,457.5C 245.868,474.767 240.534,485.767 222,490.5C 215.715,489.691 210.382,487.024 206,482.5C 182,447.167 158,411.833 134,376.5C 133.312,375.668 133.479,375.002 134.5,374.5C 143.818,368.498 152.818,362.165 161.5,355.5 Z"/></g>
<g><path style="opacity:0.93" fill="#000000" d="M 458.5,73.5 C 468.974,74.1258 472.808,79.4591 470,89.5C 468.5,91 467,92.5 465.5,94C 442.996,108.418 420.662,123.085 398.5,138C 389.636,141.333 383.97,138.5 381.5,129.5C 381.988,125.69 383.655,122.523 386.5,120C 410.428,104.214 434.428,88.7143 458.5,73.5 Z"/></g>
<g><path style="opacity:0.938" fill="#000000" d="M 247.5,162.5 C 285.569,165.732 304.069,186.399 303,224.5C 300.433,241.72 291.6,254.553 276.5,263C 265.805,262.967 261.971,257.801 265,247.5C 284.226,233.17 287.559,215.837 275,195.5C 266.774,186.536 256.608,182.702 244.5,184C 237.729,186.219 231.062,188.719 224.5,191.5C 214.204,188.402 211.871,182.235 217.5,173C 226.743,166.976 236.743,163.476 247.5,162.5 Z"/></g>
<g><path style="opacity:0.938" fill="#000000" d="M 406.5,183.5 C 435.216,188.342 463.883,193.508 492.5,199C 498.025,201.919 499.858,206.419 498,212.5C 495.792,217.105 492.125,219.105 487,218.5C 459.461,213.926 431.961,209.092 404.5,204C 400.198,202.065 398.198,198.732 398.5,194C 398.659,188.488 401.326,184.988 406.5,183.5 Z"/></g>
</svg>
