<?xml version="1.0" encoding="UTF-8"?>
<!DOCTYPE svg PUBLIC "-//W3C//DTD SVG 1.1//EN" "http://www.w3.org/Graphics/SVG/1.1/DTD/svg11.dtd">
<svg xmlns="http://www.w3.org/2000/svg" version="1.1" width="512px" height="512px" style="shape-rendering:geometricPrecision; text-rendering:geometricPrecision; image-rendering:optimizeQuality; fill-rule:evenodd; clip-rule:evenodd" xmlns:xlink="http://www.w3.org/1999/xlink">
<g><path style="opacity:0.946" fill="#000000" d="M 119.5,0.5 C 213.834,0.333335 308.167,0.500002 402.5,1C 415.755,5.31909 422.922,14.4858 424,28.5C 424.5,37.1603 424.666,45.8269 424.5,54.5C 470.522,60.0233 498.688,85.3566 509,130.5C 513.835,176.273 495.668,209.107 454.5,229C 444.91,233.064 434.91,235.231 424.5,235.5C 424.667,317.834 424.5,400.167 424,482.5C 422.922,496.514 415.755,505.681 402.5,510C 308.167,510.667 213.833,510.667 119.5,510C 108.667,507.167 101.833,500.333 99,489.5C 98.5,383.501 98.3333,277.501 98.5,171.5C 70.498,171.667 42.498,171.5 14.5,171C 6.7136,168.212 2.2136,162.712 1,154.5C 0.333333,128.833 0.333333,103.167 1,77.5C 2.93031,67.2374 9.09698,61.4041 19.5,60C 45.8312,59.5 72.1646,59.3334 98.5,59.5C 98.0542,45.76 98.5542,32.0934 100,18.5C 103.567,9.16292 110.067,3.16292 119.5,0.5 Z M 127.5,15.5 C 141.849,15.1674 156.182,15.5007 170.5,16.5C 173.042,22.9587 175.876,29.292 179,35.5C 181.928,39.381 185.761,41.881 190.5,43C 237.5,43.6667 284.5,43.6667 331.5,43C 336.239,41.881 340.072,39.381 343,35.5C 346.124,29.292 348.958,22.9587 351.5,16.5C 365.822,15.3339 380.155,15.1672 394.5,16C 400.3,16.4724 404.467,19.3057 407,24.5C 408.37,34.7773 408.87,45.1106 408.5,55.5C 367.661,62.1707 341.827,85.5041 331,125.5C 324.187,167.017 338.02,199.517 372.5,223C 383.368,229.435 395.034,233.602 407.5,235.5C 408.5,298.496 408.833,361.496 408.5,424.5C 310.5,424.5 212.5,424.5 114.5,424.5C 114.5,340.167 114.5,255.833 114.5,171.5C 128.504,171.333 142.504,171.5 156.5,172C 166.793,184.629 177.46,196.962 188.5,209C 193.731,210.724 197.565,209.224 200,204.5C 200.5,193.505 200.667,182.505 200.5,171.5C 212.842,173.906 221.675,169.573 227,158.5C 228.622,131.874 228.955,105.208 228,78.5C 226.5,67.6667 220.333,61.5 209.5,60C 177.835,59.5 146.168,59.3334 114.5,59.5C 114.333,47.8286 114.5,36.1619 115,24.5C 117.688,19.2938 121.855,16.2938 127.5,15.5 Z M 187.5,16.5 C 236.332,15.335 285.332,15.1684 334.5,16C 333.004,19.1493 331.504,22.3159 330,25.5C 329.25,26.1258 328.416,26.6258 327.5,27C 283.167,27.6667 238.833,27.6667 194.5,27C 193.584,26.6258 192.75,26.1258 192,25.5C 190.576,22.3522 189.076,19.3522 187.5,16.5 Z M 411.5,70.5 C 448.988,69.6476 475.155,86.3143 490,120.5C 500.123,157.472 489.623,186.972 458.5,209C 421.548,227.609 389.048,221.775 361,191.5C 340.016,161.946 339.349,131.946 359,101.5C 372.351,84.0769 389.851,73.7436 411.5,70.5 Z M 20.5,75.5 C 83.1676,75.3333 145.834,75.5 208.5,76C 210.723,76.6517 211.89,78.1517 212,80.5C 212.667,104.167 212.667,127.833 212,151.5C 211.535,152.931 210.701,154.097 209.5,155C 203.5,155.333 197.5,155.667 191.5,156C 188.545,156.392 186.378,157.892 185,160.5C 184.667,166.5 184.333,172.5 184,178.5C 178.291,172.46 172.957,166.126 168,159.5C 166.2,157.683 164.034,156.516 161.5,156C 113.833,155.667 66.1667,155.333 18.5,155C 17.8742,154.25 17.3742,153.416 17,152.5C 16.3333,128.167 16.3333,103.833 17,79.5C 17.6897,77.6498 18.8564,76.3164 20.5,75.5 Z M 419.5,113.5 C 422.194,119.711 425.194,125.877 428.5,132C 435.531,133.512 442.531,134.845 449.5,136C 444.715,139.818 440.215,143.985 436,148.5C 435.667,149.5 435.333,150.5 435,151.5C 436.002,158.171 437.002,164.838 438,171.5C 432.323,167.245 426.156,163.912 419.5,161.5C 413.131,164.435 406.964,167.768 401,171.5C 402.474,164.592 403.474,157.592 404,150.5C 399.833,145 395,140.167 389.5,136C 396.531,134.863 403.531,133.53 410.5,132C 413.898,126.037 416.898,119.87 419.5,113.5 Z M 277.5,168.5 C 293.233,176.296 300.399,188.963 299,206.5C 296.333,216.5 293.667,226.5 291,236.5C 290.333,239.5 290.333,242.5 291,245.5C 292.214,247.049 293.714,248.215 295.5,249C 312.167,249.333 328.833,249.667 345.5,250C 355.001,255.477 355.667,261.81 347.5,269C 336.238,270.267 324.905,270.934 313.5,271C 306.803,276.308 307.136,281.308 314.5,286C 323.5,286.333 332.5,286.667 341.5,287C 350.369,292.83 350.702,299.163 342.5,306C 332.549,307.198 322.549,307.865 312.5,308C 307.167,312.667 307.167,317.333 312.5,322C 318.5,322.333 324.5,322.667 330.5,323C 340.389,325.04 343.222,330.54 339,339.5C 337.786,341.049 336.286,342.215 334.5,343C 328.5,343.333 322.5,343.667 316.5,344C 310.889,346.718 309.389,350.884 312,356.5C 315.145,358.736 318.645,360.236 322.5,361C 326.654,365.399 326.321,369.399 321.5,373C 299.5,373.667 277.5,373.667 255.5,373C 239.293,370.792 223.293,367.625 207.5,363.5C 207.5,325.833 207.5,288.167 207.5,250.5C 229.428,249.396 245.928,239.396 257,220.5C 266.288,204.137 273.121,186.804 277.5,168.5 Z M 168.5,240.5 C 176.167,240.5 183.833,240.5 191.5,240.5C 191.5,283.833 191.5,327.167 191.5,370.5C 183.833,370.5 176.167,370.5 168.5,370.5C 168.5,327.167 168.5,283.833 168.5,240.5 Z M 114.5,440.5 C 212.5,440.5 310.5,440.5 408.5,440.5C 408.667,454.171 408.5,467.837 408,481.5C 407.528,487.3 404.694,491.467 399.5,494C 353.37,495.154 307.203,495.654 261,495.5C 214.797,495.654 168.63,495.154 122.5,494C 119,492.5 116.5,490 115,486.5C 114.5,471.17 114.333,455.837 114.5,440.5 Z M 243.5,463.5 C 255.171,463.333 266.838,463.5 278.5,464C 281.306,465.305 282.14,467.472 281,470.5C 280.25,471.126 279.416,471.626 278.5,472C 266.833,472.667 255.167,472.667 243.5,472C 241.354,471.521 240.354,470.188 240.5,468C 240.557,465.791 241.557,464.291 243.5,463.5 Z"/></g>
<g><path style="opacity:0.931" fill="#000000" d="M 416.5,84.5 C 420.287,83.8144 423.454,84.8144 426,87.5C 430.774,97.3815 435.274,107.382 439.5,117.5C 451.173,119 462.84,120.5 474.5,122C 477.972,125.373 478.805,129.207 477,133.5C 468.624,141.38 460.124,149.047 451.5,156.5C 454.305,166.722 456.639,177.055 458.5,187.5C 458.351,194.152 455.018,196.985 448.5,196C 438.833,190.5 429.167,185 419.5,179.5C 409.801,185.014 400.135,190.514 390.5,196C 382.347,196.502 379.18,192.669 381,184.5C 383.105,175.141 385.271,165.808 387.5,156.5C 379.469,149.059 371.302,141.726 363,134.5C 360.697,129.962 361.197,125.795 364.5,122C 376.12,120.368 387.787,119.034 399.5,118C 404.129,107.907 408.629,97.7407 413,87.5C 414.145,86.3636 415.312,85.3636 416.5,84.5 Z M 419.5,113.5 C 416.898,119.87 413.898,126.037 410.5,132C 403.531,133.53 396.531,134.863 389.5,136C 395,140.167 399.833,145 404,150.5C 403.474,157.592 402.474,164.592 401,171.5C 406.964,167.768 413.131,164.435 419.5,161.5C 426.156,163.912 432.323,167.245 438,171.5C 437.002,164.838 436.002,158.171 435,151.5C 435.333,150.5 435.667,149.5 436,148.5C 440.215,143.985 444.715,139.818 449.5,136C 442.531,134.845 435.531,133.512 428.5,132C 425.194,125.877 422.194,119.711 419.5,113.5 Z"/></g>
<g><path style="opacity:0.931" fill="#000000" d="M 39.5,89.5 C 89.5011,89.3333 139.501,89.5 189.5,90C 194.535,93.0133 195.702,97.1799 193,102.5C 192.097,103.701 190.931,104.535 189.5,105C 139.5,105.667 89.5,105.667 39.5,105C 34.4648,101.987 33.2981,97.8201 36,92.5C 37.1451,91.3636 38.3117,90.3636 39.5,89.5 Z"/></g>
<g><path style="opacity:0.93" fill="#000000" d="M 38.5,126.5 C 88.8344,126.333 139.168,126.5 189.5,127C 194.535,130.013 195.702,134.18 193,139.5C 192.097,140.701 190.931,141.535 189.5,142C 139.5,142.667 89.5,142.667 39.5,142C 34.9315,139.459 33.4315,135.625 35,130.5C 36.3756,129.295 37.5423,127.962 38.5,126.5 Z"/></g>
<g><path style="opacity:0.933" fill="#000000" d="M 269.5,149.5 C 278.892,149.862 287.226,153.029 294.5,159C 310.587,171.673 317.42,188.173 315,208.5C 313.062,216.755 310.895,224.922 308.5,233C 321.833,233.333 335.167,233.667 348.5,234C 365.091,239.264 371.591,250.431 368,267.5C 366.384,272.779 363.551,277.279 359.5,281C 367.538,295.314 365.538,307.981 353.5,319C 360.979,336.229 356.646,349.562 340.5,359C 344.331,374.01 338.997,384.01 324.5,389C 298.141,389.914 271.807,389.581 245.5,388C 232.616,386.112 219.949,383.279 207.5,379.5C 205.644,382.19 203.311,384.356 200.5,386C 187.167,386.667 173.833,386.667 160.5,386C 155.772,384.604 153.272,381.438 153,376.5C 152.833,352.833 152.667,329.167 152.5,305.5C 152.352,280.453 152.852,255.453 154,230.5C 155.251,227.619 157.417,225.786 160.5,225C 173.833,224.333 187.167,224.333 200.5,225C 204.597,226.922 206.93,230.088 207.5,234.5C 222.007,233.998 233.174,227.665 241,215.5C 252.072,195.623 260.405,174.623 266,152.5C 267.145,151.364 268.312,150.364 269.5,149.5 Z M 277.5,168.5 C 273.121,186.804 266.288,204.137 257,220.5C 245.928,239.396 229.428,249.396 207.5,250.5C 207.5,288.167 207.5,325.833 207.5,363.5C 223.293,367.625 239.293,370.792 255.5,373C 277.5,373.667 299.5,373.667 321.5,373C 326.321,369.399 326.654,365.399 322.5,361C 318.645,360.236 315.145,358.736 312,356.5C 309.389,350.884 310.889,346.718 316.5,344C 322.5,343.667 328.5,343.333 334.5,343C 336.286,342.215 337.786,341.049 339,339.5C 343.222,330.54 340.389,325.04 330.5,323C 324.5,322.667 318.5,322.333 312.5,322C 307.167,317.333 307.167,312.667 312.5,308C 322.549,307.865 332.549,307.198 342.5,306C 350.702,299.163 350.369,292.83 341.5,287C 332.5,286.667 323.5,286.333 314.5,286C 307.136,281.308 306.803,276.308 313.5,271C 324.905,270.934 336.238,270.267 347.5,269C 355.667,261.81 355.001,255.477 345.5,250C 328.833,249.667 312.167,249.333 295.5,249C 293.714,248.215 292.214,247.049 291,245.5C 290.333,242.5 290.333,239.5 291,236.5C 293.667,226.5 296.333,216.5 299,206.5C 300.399,188.963 293.233,176.296 277.5,168.5 Z M 168.5,240.5 C 168.5,283.833 168.5,327.167 168.5,370.5C 176.167,370.5 183.833,370.5 191.5,370.5C 191.5,327.167 191.5,283.833 191.5,240.5C 183.833,240.5 176.167,240.5 168.5,240.5 Z"/></g>
<g><path style="opacity:0.932" fill="#000000" d="M 241.5,447.5 C 254.504,447.333 267.504,447.5 280.5,448C 293.883,451.243 299.383,459.743 297,473.5C 294.64,481.858 289.14,486.691 280.5,488C 267.5,488.667 254.5,488.667 241.5,488C 228.377,484.527 222.877,476.027 225,462.5C 227.558,454.103 233.058,449.103 241.5,447.5 Z M 243.5,463.5 C 241.557,464.291 240.557,465.791 240.5,468C 240.354,470.188 241.354,471.521 243.5,472C 255.167,472.667 266.833,472.667 278.5,472C 279.416,471.626 280.25,471.126 281,470.5C 282.14,467.472 281.306,465.305 278.5,464C 266.838,463.5 255.171,463.333 243.5,463.5 Z"/></g>
</svg>
