<?xml version="1.0" encoding="UTF-8"?>
<!DOCTYPE svg PUBLIC "-//W3C//DTD SVG 1.1//EN" "http://www.w3.org/Graphics/SVG/1.1/DTD/svg11.dtd">
<svg xmlns="http://www.w3.org/2000/svg" version="1.1" width="512px" height="512px" style="shape-rendering:geometricPrecision; text-rendering:geometricPrecision; image-rendering:optimizeQuality; fill-rule:evenodd; clip-rule:evenodd" xmlns:xlink="http://www.w3.org/1999/xlink">
<g><path style="opacity:0.93" fill="#000000" d="M 252.5,14.5 C 316.426,16.3144 361.926,45.981 389,103.5C 393.826,111.795 391.826,117.461 383,120.5C 379.566,120.068 376.9,118.401 375,115.5C 352.849,63.0595 313.183,35.0595 256,31.5C 206.759,33.7708 169.425,55.7708 144,97.5C 126.034,131.724 123.367,167.057 136,203.5C 137.33,213.167 133.164,217.001 123.5,215C 121.951,213.786 120.785,212.286 120,210.5C 100.369,148.523 113.869,95.0233 160.5,50C 187.291,28.0158 217.958,16.1824 252.5,14.5 Z"/></g>
<g><path style="opacity:0.945" fill="#000000" d="M 241.5,63.5 C 293.891,60.1091 329.391,82.7757 348,131.5C 349.924,138.042 351.09,144.709 351.5,151.5C 354.518,151.665 357.518,151.498 360.5,151C 370.863,140.303 381.529,129.97 392.5,120C 417.5,119.333 442.5,119.333 467.5,120C 470.516,121.529 471.849,124.029 471.5,127.5C 471.485,129.634 470.985,131.634 470,133.5C 460.682,141.651 451.849,150.317 443.5,159.5C 451.849,168.683 460.682,177.349 470,185.5C 471.483,188.702 471.817,192.036 471,195.5C 470.5,197.333 469.333,198.5 467.5,199C 442.5,199.667 417.5,199.667 392.5,199C 381.529,189.03 370.863,178.697 360.5,168C 357.518,167.502 354.518,167.335 351.5,167.5C 347.133,204.747 328.133,231.58 294.5,248C 250.726,264.097 212.893,255.263 181,221.5C 160.176,194.574 154.176,164.574 163,131.5C 176.087,93.5699 202.254,70.9032 241.5,63.5 Z M 255.5,79.5 C 300.047,83.5943 326.38,107.594 334.5,151.5C 324.145,151.832 313.812,151.499 303.5,150.5C 294.985,121.499 275.651,108.666 245.5,112C 221.134,118.528 208.467,134.361 207.5,159.5C 208.467,184.639 221.134,200.472 245.5,207C 275.651,210.334 294.985,197.501 303.5,168.5C 313.812,167.501 324.145,167.168 334.5,167.5C 328.4,206.433 306.067,229.933 267.5,238C 227.701,241.36 199.201,225.193 182,189.5C 169.543,152.485 178.043,121.318 207.5,96C 221.932,85.602 237.932,80.102 255.5,79.5 Z M 247.5,128.5 C 260.367,126.419 271.2,130.086 280,139.5C 282.656,143.144 284.489,147.144 285.5,151.5C 274.162,151.333 262.828,151.5 251.5,152C 248.484,153.529 247.151,156.029 247.5,159.5C 247.151,162.971 248.484,165.471 251.5,167C 262.828,167.5 274.162,167.667 285.5,167.5C 281.055,181.989 271.222,189.989 256,191.5C 232.711,188.271 222.378,174.938 225,151.5C 228.684,139.984 236.184,132.317 247.5,128.5 Z M 400.5,135.5 C 414.504,135.333 428.504,135.5 442.5,136C 436.865,140.633 431.532,145.633 426.5,151C 412.833,151.667 399.167,151.667 385.5,151C 390.703,145.965 395.703,140.798 400.5,135.5 Z M 385.5,168.5 C 398.994,167.339 412.66,167.173 426.5,168C 431.532,173.367 436.865,178.367 442.5,183C 428.5,183.667 414.5,183.667 400.5,183C 395.631,177.963 390.631,173.13 385.5,168.5 Z"/></g>
<g><path style="opacity:0.929" fill="#000000" d="M 108.5,223.5 C 142.038,220.512 165.872,234.179 180,264.5C 189.669,296.493 181.169,322.326 154.5,342C 136.064,352.264 116.73,354.264 96.5,348C 63.6953,332.812 50.5286,307.312 57,271.5C 64.7458,245.25 81.9124,229.25 108.5,223.5 Z M 110.5,240.5 C 139.222,238.408 157.722,251.075 166,278.5C 169.073,299.514 161.906,316.014 144.5,328C 118.396,340.515 96.5625,335.348 79,312.5C 66.9009,288.072 71.0676,266.906 91.5,249C 97.4528,245.081 103.786,242.248 110.5,240.5 Z"/></g>
<g><path style="opacity:0.929" fill="#000000" d="M 380.5,223.5 C 414.038,220.512 437.872,234.179 452,264.5C 461.669,296.493 453.169,322.326 426.5,342C 408.064,352.264 388.73,354.264 368.5,348C 335.695,332.812 322.529,307.312 329,271.5C 336.746,245.25 353.912,229.25 380.5,223.5 Z M 382.5,240.5 C 411.222,238.408 429.722,251.075 438,278.5C 441.073,299.514 433.906,316.014 416.5,328C 390.396,340.515 368.562,335.348 351,312.5C 338.901,288.072 343.068,266.906 363.5,249C 369.453,245.081 375.786,242.248 382.5,240.5 Z"/></g>
<g><path style="opacity:0.929" fill="#000000" d="M 244.5,263.5 C 278.038,260.512 301.872,274.179 316,304.5C 325.669,336.493 317.169,362.326 290.5,382C 272.064,392.264 252.73,394.264 232.5,388C 199.695,372.812 186.529,347.312 193,311.5C 200.746,285.25 217.912,269.25 244.5,263.5 Z M 246.5,280.5 C 275.222,278.408 293.722,291.075 302,318.5C 305.073,339.514 297.906,356.014 280.5,368C 254.396,380.515 232.562,375.348 215,352.5C 202.901,328.072 207.068,306.906 227.5,289C 233.453,285.081 239.786,282.248 246.5,280.5 Z"/></g>
<g><path style="opacity:0.945" fill="#000000" d="M 95.5,359.5 C 125.571,357.576 155.237,360.076 184.5,367C 192.989,369.247 200.989,372.58 208.5,377C 212.809,382.42 212.142,387.086 206.5,391C 203.833,391.667 201.167,391.667 198.5,391C 188.042,385.736 177.042,382.069 165.5,380C 136.805,375.117 108.138,374.784 79.5,379C 63.2383,380.975 48.2383,386.308 34.5,395C 33.5399,396.419 32.7065,397.919 32,399.5C 31.6667,416.833 31.3333,434.167 31,451.5C 30.5,453.333 29.3333,454.5 27.5,455C 24.0357,455.817 20.7024,455.483 17.5,454C 16.8742,453.25 16.3742,452.416 16,451.5C 15.3333,432.167 15.3333,412.833 16,393.5C 18.3026,386.861 22.4693,381.694 28.5,378C 39.1183,371.903 50.4517,367.57 62.5,365C 73.5746,362.731 84.5746,360.897 95.5,359.5 Z"/></g>
<g><path style="opacity:0.945" fill="#000000" d="M 367.5,359.5 C 397.568,357.576 427.235,360.076 456.5,367C 469.545,370.437 481.045,376.603 491,385.5C 492.861,387.888 494.194,390.554 495,393.5C 495.975,413.59 495.642,433.59 494,453.5C 490.744,455.429 487.244,455.929 483.5,455C 481.667,454.5 480.5,453.333 480,451.5C 479.667,434.167 479.333,416.833 479,399.5C 475.183,393.317 469.683,389.151 462.5,387C 439.438,379.396 415.771,375.563 391.5,375.5C 371.599,375.989 351.932,378.489 332.5,383C 325.515,384.884 318.848,387.55 312.5,391C 303.903,393.387 299.736,390.221 300,381.5C 301.926,377.427 305.093,374.593 309.5,373C 328.301,365.631 347.635,361.131 367.5,359.5 Z"/></g>
<g><path style="opacity:0.952" fill="#000000" d="M 231.5,399.5 C 255.613,398.669 279.613,399.835 303.5,403C 318.676,405.614 333.009,410.614 346.5,418C 352.531,421.694 356.697,426.861 359,433.5C 359.975,453.59 359.642,473.59 358,493.5C 354.744,495.429 351.244,495.929 347.5,495C 345.667,494.5 344.5,493.333 344,491.5C 343.667,474.167 343.333,456.833 343,439.5C 339.183,433.317 333.683,429.151 326.5,427C 279.167,411.667 231.833,411.667 184.5,427C 177.317,429.151 171.817,433.317 168,439.5C 167.667,456.833 167.333,474.167 167,491.5C 166.5,493.333 165.333,494.5 163.5,495C 160.036,495.817 156.702,495.483 153.5,494C 152.874,493.25 152.374,492.416 152,491.5C 151.333,472.167 151.333,452.833 152,433.5C 154.303,426.861 158.469,421.694 164.5,418C 175.118,411.903 186.452,407.57 198.5,405C 209.575,402.731 220.575,400.897 231.5,399.5 Z"/></g>
</svg>
