<svg width="14" height="14" viewBox="0 0 14 14" fill="none" xmlns="http://www.w3.org/2000/svg">
<path opacity="0.938" fill-rule="evenodd" clip-rule="evenodd" d="M7.73387 0C7.875 0 8.01613 0 8.15725 0C9.62802 0.95419 11.0958 1.91578 12.5605 2.88477C12.8034 3.09889 12.874 3.35866 12.7722 3.66406C12.5616 3.99468 12.3405 4.31823 12.1089 4.63477C12.498 4.61103 12.7661 4.77053 12.9133 5.11328C12.939 5.27696 12.9625 5.44102 12.9839 5.60547C13.1541 5.72969 13.2623 5.89375 13.3085 6.09766C13.3226 6.7903 13.3273 7.483 13.3226 8.17578C13.5022 8.1594 13.6716 8.19131 13.8306 8.27148C13.9042 8.32448 13.9559 8.39284 13.9859 8.47656C14.0047 9.29688 14.0047 10.1172 13.9859 10.9375C13.8464 11.1971 13.6253 11.2974 13.3226 11.2383C13.3273 11.9311 13.3226 12.6238 13.3085 13.3164C13.2074 13.6558 12.9863 13.8837 12.6452 14C8.65592 14 4.66665 14 0.677419 14C0.348622 13.8865 0.127521 13.6678 0.014113 13.3438C-0.00470432 10.9284 -0.00470432 8.51301 0.014113 6.09766C0.0790464 5.82602 0.238993 5.62548 0.493951 5.49609C0.478509 5.22405 0.567892 4.99163 0.762096 4.79883C0.848309 4.73884 0.942397 4.69325 1.04435 4.66211C1.27938 4.64844 1.5146 4.6439 1.75 4.64844C1.85056 3.59964 1.95876 2.55147 2.0746 1.50391C2.18333 1.20722 2.39973 1.04316 2.72379 1.01172C3.79103 1.11921 4.8589 1.22403 5.92742 1.32617C6.16948 1.35293 6.24005 1.47597 6.13911 1.69531C6.06609 1.73671 5.98613 1.75493 5.89919 1.75C4.81769 1.63975 3.73568 1.54405 2.65322 1.46289C2.60281 1.48434 2.56047 1.51624 2.52621 1.55859C2.37121 2.8414 2.23478 4.12655 2.11693 5.41406C2.1922 5.41406 2.26747 5.41406 2.34274 5.41406C2.42297 4.54568 2.52176 3.67979 2.63911 2.81641C2.67132 2.75874 2.71366 2.70861 2.76613 2.66602C2.91174 2.60006 3.05287 2.52714 3.18951 2.44727C3.341 2.30968 3.48213 2.16384 3.6129 2.00977C3.70475 1.9594 3.80354 1.93661 3.90927 1.94141C4.48034 1.98716 5.04957 2.0464 5.61693 2.11914C5.69862 2.19868 5.72213 2.29438 5.6875 2.40625C5.63658 2.49695 5.55661 2.53341 5.44758 2.51562C4.91233 2.45282 4.37604 2.41181 3.83871 2.39258C3.63382 2.68097 3.36567 2.89516 3.03427 3.03516C2.94683 3.82761 2.86687 4.62057 2.79435 5.41406C3.1242 5.42314 3.45348 5.41404 3.78226 5.38672C5.00926 3.63751 6.2418 1.89208 7.47984 0.150391C7.56632 0.0995641 7.651 0.0494339 7.73387 0ZM7.875 0.410156C7.94525 0.404627 8.01113 0.418299 8.07258 0.451172C9.45076 1.36939 10.8338 2.28085 12.2218 3.18555C12.3607 3.2705 12.403 3.38445 12.3488 3.52734C11.9168 4.15089 11.4793 4.77069 11.0363 5.38672C10.9436 5.41836 10.8495 5.42292 10.754 5.40039C10.9965 5.0654 11.227 4.72361 11.4456 4.375C11.4644 4.28386 11.4644 4.1927 11.4456 4.10156C11.281 3.79351 11.2152 3.46538 11.248 3.11719C11.2198 3.0625 11.1915 3.00781 11.1633 2.95312C10.4137 2.43659 9.65627 1.93073 8.89112 1.43555C8.79476 1.38257 8.69126 1.35067 8.58064 1.33984C8.40245 1.39872 8.22367 1.45796 8.04435 1.51758C7.84677 1.52669 7.64919 1.53581 7.45161 1.54492C7.36352 1.56478 7.28827 1.60579 7.2258 1.66797C6.3508 2.90754 5.4758 4.14714 4.6008 5.38672C4.50811 5.41836 4.41401 5.42292 4.31855 5.40039C5.42511 3.84434 6.52123 2.28119 7.60685 0.710938C7.68368 0.597398 7.77304 0.497137 7.875 0.410156ZM8.55242 1.77734C9.33108 2.246 10.0932 2.74274 10.8387 3.26758C10.7848 3.58788 10.8366 3.8932 10.9939 4.18359C11.0128 4.22004 11.0128 4.25652 10.9939 4.29297C10.7387 4.66449 10.48 5.03363 10.2177 5.40039C9.99134 5.42314 9.76553 5.41857 9.54032 5.38672C9.36772 4.45389 8.7938 3.95259 7.81854 3.88281C7.0593 3.92139 6.52769 4.27686 6.22379 4.94922C6.16838 5.10005 6.13544 5.255 6.125 5.41406C5.79515 5.42314 5.46587 5.41404 5.13709 5.38672C5.94396 4.23352 6.75782 3.08509 7.57863 1.94141C7.92436 1.99744 8.24896 1.94275 8.55242 1.77734ZM7.56451 4.32031C8.40361 4.25882 8.91167 4.62339 9.08871 5.41406C8.25133 5.41406 7.41398 5.41406 6.57661 5.41406C6.66569 4.84477 6.995 4.48016 7.56451 4.32031ZM1.21371 5.05859C1.37366 5.05859 1.5336 5.05859 1.69355 5.05859C1.69447 5.17806 1.68507 5.29654 1.66532 5.41406C1.43011 5.41406 1.19489 5.41406 0.959677 5.41406C0.947181 5.22629 1.03186 5.10779 1.21371 5.05859ZM11.7984 5.05859C11.9891 5.04829 12.1773 5.06196 12.3629 5.09961C12.4756 5.17669 12.5227 5.28153 12.504 5.41406C12.1934 5.41863 11.8829 5.41406 11.5726 5.40039C11.6541 5.28965 11.7294 5.17571 11.7984 5.05859ZM0.762096 5.85156C4.69491 5.847 8.62769 5.85156 12.5605 5.86523C12.686 5.92304 12.7848 6.00964 12.8568 6.125C12.8958 6.36923 12.9099 6.61533 12.8992 6.86328C8.7406 6.86328 4.58198 6.86328 0.423387 6.86328C0.41869 6.64434 0.423395 6.42559 0.4375 6.20703C0.501657 6.04926 0.609855 5.93078 0.762096 5.85156ZM0.423387 7.27344C4.58198 7.27344 8.7406 7.27344 12.8992 7.27344C12.8992 7.57422 12.8992 7.875 12.8992 8.17578C12.2217 8.17121 11.5443 8.17578 10.8669 8.18945C10.1525 8.25259 9.67738 8.61262 9.44153 9.26953C9.26046 10.038 9.50978 10.635 10.1895 11.0605C10.3591 11.1427 10.5379 11.1973 10.7258 11.2246C11.4502 11.2383 12.1747 11.2428 12.8992 11.2383C12.8992 11.5391 12.8992 11.8398 12.8992 12.1406C9.52149 12.1361 6.1438 12.1406 2.76613 12.1543C2.62401 12.2367 2.59107 12.3506 2.66734 12.4961C2.69283 12.5289 2.72574 12.5517 2.76613 12.5645C6.1438 12.5781 9.52149 12.5827 12.8992 12.5781C12.9108 12.8174 12.8966 13.0543 12.8568 13.2891C12.791 13.4439 12.6734 13.5396 12.504 13.5762C8.60887 13.5944 4.71371 13.5944 0.818548 13.5762C0.649168 13.5396 0.531559 13.4439 0.465726 13.2891C0.42593 13.0543 0.411817 12.8174 0.423387 12.5781C0.809253 12.5827 1.19501 12.5781 1.58064 12.5645C1.74306 12.491 1.78069 12.377 1.69355 12.2227C1.66066 12.193 1.62303 12.1702 1.58064 12.1543C1.19501 12.1406 0.809253 12.1361 0.423387 12.1406C0.423387 10.5182 0.423387 8.89582 0.423387 7.27344ZM10.7823 8.61328C11.7043 8.60871 12.6264 8.61328 13.5484 8.62695C13.5858 9.34976 13.5858 10.0744 13.5484 10.8008C12.684 10.8325 11.8184 10.837 10.9516 10.8145C10.3675 10.7681 9.99585 10.4719 9.83669 9.92578C9.78388 9.23404 10.0991 8.79654 10.7823 8.61328ZM10.8669 9.32422C11.2855 9.31476 11.4501 9.50616 11.3609 9.89844C11.137 10.1751 10.9018 10.1842 10.6552 9.92578C10.5429 9.6644 10.6135 9.46386 10.8669 9.32422Z" fill="#101828"/>
</svg>
