<svg width="200" height="200" viewBox="0 0 200 200" fill="none" xmlns="http://www.w3.org/2000/svg">
<g clip-path="url(#clip0_8119_25019)">
<path opacity="0.938" fill-rule="evenodd" clip-rule="evenodd" d="M109.961 -0.195312C111.914 -0.195312 113.867 -0.195312 115.82 -0.195312C136.175 13.436 156.487 27.1729 176.758 41.0156C180.12 44.0746 181.096 47.7855 179.688 52.1484C176.773 56.8715 173.713 61.4937 170.508 66.0156C175.893 65.6766 179.604 67.9551 181.641 72.8516C181.996 75.1898 182.321 77.5336 182.617 79.8828C184.973 81.6574 186.47 84.0012 187.109 86.9141C187.305 96.809 187.37 106.705 187.305 116.602C189.791 116.368 192.135 116.823 194.336 117.969C195.354 118.726 196.07 119.702 196.484 120.898C196.745 132.617 196.745 144.336 196.484 156.055C194.555 159.764 191.495 161.196 187.305 160.352C187.37 170.248 187.305 180.144 187.109 190.039C185.711 194.887 182.651 198.143 177.93 199.805C122.721 199.805 67.5129 199.805 12.3047 199.805C7.75438 198.184 4.69449 195.059 3.125 190.43C2.86458 155.925 2.86458 121.419 3.125 86.9141C4.02363 83.0336 6.23719 80.1687 9.76563 78.3203C9.55191 74.434 10.7889 71.1137 13.4766 68.3594C14.6697 67.5023 15.9718 66.8512 17.3828 66.4062C20.6354 66.2109 23.8906 66.1461 27.1484 66.2109C28.5401 51.2281 30.0375 36.2543 31.6406 21.2891C33.1455 17.0507 36.1402 14.7069 40.625 14.2578C55.3949 15.7934 70.1734 17.2908 84.9609 18.75C88.3109 19.1322 89.2875 20.89 87.8906 24.0234C86.8801 24.6148 85.7734 24.8752 84.5703 24.8047C69.6031 23.2297 54.6289 21.8625 39.6484 20.7031C38.9508 21.0096 38.3648 21.4653 37.8906 22.0703C35.7455 40.3961 33.8575 58.7555 32.2266 77.1484C33.2682 77.1484 34.3099 77.1484 35.3516 77.1484C36.4618 64.743 37.829 52.373 39.4531 40.0391C39.8988 39.2152 40.4848 38.4991 41.2109 37.8906C43.2262 36.9484 45.1793 35.9067 47.0703 34.7656C49.1668 32.8001 51.1199 30.7168 52.9297 28.5156C54.2008 27.7961 55.568 27.4705 57.0312 27.5391C64.9344 28.1926 72.8121 29.039 80.6641 30.0781C81.7945 31.2143 82.1199 32.5815 81.6406 34.1797C80.9359 35.4754 79.8293 35.9962 78.3203 35.7422C70.9129 34.845 63.491 34.2591 56.0547 33.9844C53.2191 38.1043 49.5082 41.1641 44.9219 43.1641C43.7117 54.4848 42.6051 65.8129 41.6016 77.1484C46.1664 77.2781 50.7234 77.148 55.2734 76.7578C72.2543 51.7691 89.3117 26.8344 106.445 1.95312C107.642 1.22703 108.814 0.510887 109.961 -0.195312ZM111.914 5.66406C112.886 5.58508 113.798 5.78039 114.648 6.25C133.721 19.3675 152.862 32.3883 172.07 45.3125C173.993 46.5262 174.579 48.1539 173.828 50.1953C167.85 59.1031 161.795 67.9574 155.664 76.7578C154.381 77.2098 153.079 77.275 151.758 76.9531C155.114 72.1676 158.304 67.2848 161.328 62.3047C161.589 61.0027 161.589 59.7004 161.328 58.3984C159.051 53.9977 158.139 49.3102 158.594 44.3359C158.203 43.5547 157.812 42.7734 157.422 41.9922C147.048 34.6132 136.566 27.3866 125.977 20.3125C124.643 19.5557 123.211 19.1 121.68 18.9453C119.214 19.7864 116.739 20.6327 114.258 21.4844C111.523 21.6146 108.789 21.7448 106.055 21.875C104.836 22.1586 103.794 22.7446 102.93 23.6328C90.8203 41.341 78.7109 59.0496 66.6016 76.7578C65.3188 77.2098 64.0164 77.275 62.6953 76.9531C78.0094 54.7238 93.1789 32.3931 108.203 9.96094C109.266 8.33895 110.503 6.90664 111.914 5.66406ZM121.289 25.1953C132.065 31.8904 142.612 38.9867 152.93 46.4844C152.184 51.0602 152.9 55.4219 155.078 59.5703C155.339 60.091 155.339 60.6121 155.078 61.1328C151.546 66.4402 147.965 71.7137 144.336 76.9531C141.203 77.2781 138.078 77.2129 134.961 76.7578C132.572 63.4316 124.63 56.2703 111.133 55.2734C100.625 55.8246 93.2684 60.9027 89.0625 70.5078C88.2957 72.6625 87.8398 74.8762 87.6953 77.1484C83.1305 77.2781 78.5734 77.148 74.0234 76.7578C85.1898 60.2836 96.4531 43.8773 107.812 27.5391C112.597 28.3395 117.089 27.5582 121.289 25.1953ZM107.617 61.5234C119.23 60.6449 126.261 65.8531 128.711 77.1484C117.122 77.1484 105.534 77.1484 93.9453 77.1484C95.1781 69.0156 99.7355 63.807 107.617 61.5234ZM19.7266 72.0703C21.9401 72.0703 24.1536 72.0703 26.3672 72.0703C26.38 73.777 26.2498 75.4695 25.9766 77.1484C22.7214 77.1484 19.4661 77.1484 16.2109 77.1484C16.038 74.466 17.2099 72.773 19.7266 72.0703ZM166.211 72.0703C168.85 71.923 171.455 72.1184 174.023 72.6562C175.583 73.7574 176.234 75.2551 175.977 77.1484C171.678 77.2137 167.381 77.1484 163.086 76.9531C164.215 75.3711 165.257 73.7434 166.211 72.0703ZM13.4766 83.3984C67.9039 83.3332 122.331 83.3984 176.758 83.5938C178.495 84.4195 179.862 85.6566 180.859 87.3047C181.399 90.7938 181.594 94.3094 181.445 97.8516C123.893 97.8516 66.341 97.8516 8.78906 97.8516C8.72406 94.7238 8.78918 91.5988 8.98438 88.4766C9.87227 86.2227 11.3696 84.5301 13.4766 83.3984ZM8.78906 103.711C66.341 103.711 123.893 103.711 181.445 103.711C181.445 108.008 181.445 112.305 181.445 116.602C172.07 116.536 162.695 116.602 153.32 116.797C143.433 117.699 136.858 122.842 133.594 132.227C131.088 143.204 134.538 151.733 143.945 157.812C146.293 158.986 148.767 159.767 151.367 160.156C161.393 160.352 171.418 160.417 181.445 160.352C181.445 164.648 181.445 168.945 181.445 173.242C134.7 173.177 87.9555 173.242 41.2109 173.438C39.2441 174.614 38.7883 176.242 39.8438 178.32C40.1965 178.789 40.652 179.115 41.2109 179.297C87.9555 179.492 134.7 179.557 181.445 179.492C181.605 182.91 181.41 186.295 180.859 189.648C179.948 191.861 178.321 193.228 175.977 193.75C122.07 194.011 68.1641 194.011 14.2578 193.75C11.9137 193.228 10.2861 191.861 9.375 189.648C8.82426 186.295 8.62895 182.91 8.78906 179.492C14.1292 179.557 19.4677 179.492 24.8047 179.297C27.0524 178.247 27.5732 176.619 26.3672 174.414C25.9121 173.991 25.3913 173.665 24.8047 173.438C19.4677 173.242 14.1292 173.177 8.78906 173.242C8.78906 150.065 8.78906 126.888 8.78906 103.711ZM152.148 122.852C164.909 122.786 177.67 122.852 190.43 123.047C190.948 133.373 190.948 143.724 190.43 154.102C178.467 154.554 166.488 154.619 154.492 154.297C146.408 153.634 141.265 149.403 139.062 141.602C138.332 131.72 142.694 125.47 152.148 122.852ZM153.32 133.008C159.113 132.873 161.391 135.607 160.156 141.211C157.058 145.164 153.803 145.294 150.391 141.602C148.836 137.868 149.813 135.003 153.32 133.008Z" fill="#E4E7EC"/>
<path opacity="0.925" fill-rule="evenodd" clip-rule="evenodd" d="M153.32 126.758C161.426 126.573 165.984 130.48 166.992 138.477C165.923 147.034 161.106 150.875 152.539 150C145.6 147.784 142.67 143.031 143.75 135.743C145.26 130.911 148.45 127.916 153.32 126.758ZM153.32 133.008C149.813 135.003 148.836 137.868 150.391 141.602C153.803 145.294 157.058 145.164 160.156 141.211C161.391 135.607 159.113 132.873 153.32 133.008Z" fill="#E4E7EC"/>
</g>
<defs>
<clipPath id="clip0_8119_25019">
<rect width="200" height="200" fill="white"/>
</clipPath>
</defs>
</svg>
